<svg width="1035" height="985" viewBox="0 0 1035 985" fill="none" xmlns="http://www.w3.org/2000/svg">
<g style="mix-blend-mode:overlay" clip-path="url(#clip0_718_379)">
<path opacity="0.5" d="M689.9 -11.3167L690.177 -11.155L759.354 28.7873L759.354 108.972L759.077 109.134L689.9 149.076L689.623 148.914L620.446 108.972L620.446 28.7872L620.723 28.6256L689.9 -11.3167ZM758.269 29.411L689.9 -10.0462L621.532 29.411L621.532 108.325L689.9 147.782L758.269 108.325L758.269 29.411Z" fill="#D0D9DD"/>
<path opacity="0.5" d="M69.7318 -130.659L70.009 -130.497L139.186 -90.5545L139.186 -10.3696L138.909 -10.2079L69.7318 29.7344L69.4545 29.5727L0.277378 -10.3696L0.277385 -90.5545L0.554637 -90.7162L69.7318 -130.659ZM138.1 -89.9308L69.7318 -129.388L1.36332 -89.9308L1.36332 -11.0164L69.7318 28.4407L138.1 -11.0164L138.1 -89.9308Z" fill="#D0D9DD"/>
<path opacity="0.5" d="M69.7318 -51.0975L70.009 -50.9358L139.186 -10.9935L139.186 69.1914L138.909 69.3532L69.7318 109.295L69.4545 109.134L0.277378 69.1914L0.277385 -10.9935L0.554637 -11.1552L69.7318 -51.0975ZM138.1 -10.3697L69.7318 -49.8269L1.36332 -10.3697L1.36332 68.5446L69.7318 108.002L138.1 68.5446L138.1 -10.3697Z" fill="#D0D9DD"/>
<path opacity="0.5" d="M69.7318 187.563L70.009 187.725L139.186 227.667L139.186 307.852L138.909 308.014L69.7318 347.956L69.4544 347.794L0.277347 307.852L0.277354 227.667L0.554606 227.505L69.7318 187.563ZM138.1 228.291L69.7318 188.834L1.36329 228.291L1.36328 307.205L69.7318 346.662L138.1 307.205L138.1 228.291Z" fill="#D0D9DD"/>
<path opacity="0.5" d="M69.7317 346.662L70.009 346.824L139.186 386.766L139.186 466.951L138.909 467.113L69.7317 507.055L0.277317 466.951L0.277324 386.766L0.554576 386.605L69.7317 346.662ZM138.1 387.39L69.7317 347.933L1.36326 387.39L1.36325 466.304L69.7317 505.761L138.1 466.304L138.1 387.39Z" fill="#D0D9DD"/>
<path opacity="0.5" d="M69.7317 585.346L139.186 625.45L139.186 705.635L138.909 705.796L69.7317 745.739L0.277317 705.635L0.277324 625.45L0.554576 625.288L69.7317 585.346ZM138.1 626.074L69.7317 586.616L1.36326 626.074L1.36325 704.988L69.7317 744.445L138.1 704.988L138.1 626.074Z" fill="#D0D9DD"/>
<path opacity="0.5" d="M69.7317 664.884L139.186 704.988L139.186 785.173L138.909 785.335L69.7317 825.277L0.277286 785.173L0.277293 704.988L0.554545 704.826L69.7317 664.884ZM138.1 705.612L69.7317 666.155L1.36323 705.612L1.36322 784.526L69.7317 823.983L138.1 784.526L138.1 705.612Z" fill="#D0D9DD"/>
<path opacity="0.5" d="M69.7317 824.006L139.186 864.11L139.186 944.295L138.909 944.457L69.7317 984.376L0.277286 944.272L0.277293 864.087L0.554545 863.926L69.7317 823.983L69.7317 824.006ZM138.1 864.734L69.7317 825.277L1.36323 864.734L1.36322 943.648L69.7317 983.106L138.1 943.648L138.1 864.734Z" fill="#D0D9DD"/>
<path opacity="0.5" d="M138.655 68.2214L138.932 68.3831L208.109 108.325L208.109 188.51L207.832 188.672L138.655 228.614L138.378 228.453L69.2004 188.51L69.2004 108.325L69.4776 108.164L138.655 68.2214ZM207.023 108.949L138.655 69.492L70.2863 108.949L70.2863 187.863L138.655 227.321L207.023 187.863L207.023 108.949Z" fill="#D0D9DD"/>
<path opacity="0.5" d="M138.655 147.782L138.932 147.944L208.109 187.886L208.109 268.071L207.832 268.233L138.655 308.175L138.378 308.014L69.2004 268.071L69.2004 187.886L69.4776 187.725L138.655 147.782ZM207.023 188.51L138.655 149.053L70.2863 188.51L70.2863 267.424L138.655 306.882L207.023 267.424L207.023 188.51Z" fill="#D0D9DD"/>
<path opacity="0.5" d="M138.655 466.004L208.109 506.108L208.109 586.293L207.832 586.455L138.655 626.397L69.2004 586.293L69.2004 506.108L69.4776 505.946L138.655 466.004ZM207.023 506.732L138.655 467.275L70.2863 506.732L70.2863 585.646L138.655 625.103L207.023 585.646L207.023 506.732Z" fill="#D0D9DD"/>
<path opacity="0.5" d="M138.655 545.566L208.109 585.67L208.109 665.855L207.832 666.016L138.655 705.958L69.2004 665.854L69.2004 585.67L69.4776 585.508L138.655 545.566ZM207.023 586.293L138.655 546.836L70.2863 586.293L70.2863 665.208L138.655 704.665L207.023 665.208L207.023 586.293Z" fill="#D0D9DD"/>
<path opacity="0.5" d="M207.555 28.464L207.832 28.6258L277.009 68.568L277.009 148.753L276.732 148.915L207.555 188.857L207.277 188.695L138.1 148.753L138.1 68.568L138.378 68.4064L207.555 28.464ZM275.923 69.1918L207.555 29.7346L139.186 69.1918L139.186 148.106L207.555 187.563L275.923 148.106L275.923 69.1918Z" fill="#D0D9DD"/>
<path opacity="0.5" d="M207.555 187.563L207.832 187.725L277.009 227.667L277.009 307.852L276.732 308.014L207.555 347.956L207.277 347.794L138.1 307.852L138.1 227.667L138.378 227.505L207.555 187.563ZM275.923 228.291L207.555 188.834L139.186 228.291L139.186 307.205L207.555 346.662L275.923 307.205L275.923 228.291Z" fill="#D0D9DD"/>
<g opacity="0.5">
<path d="M207.555 744.445L277.009 784.549L277.009 864.734L276.732 864.896L207.555 904.838L138.1 864.734L138.1 784.549L138.377 784.388L207.555 744.445ZM275.923 785.173L207.555 745.716L139.186 785.173L139.186 864.087L207.555 903.544L275.923 864.087L275.923 785.173Z" fill="#D0D9DD"/>
</g>
<path opacity="0.5" d="M276.455 -90.8778L276.732 -90.716L345.909 -50.7737L345.909 29.4112L345.632 29.5729L276.455 69.5151L276.177 69.3535L207 29.4112L207 -50.7737L207.277 -50.9354L276.455 -90.8778ZM344.823 -50.15L276.455 -89.6072L208.086 -50.15L208.086 28.7643L276.455 68.2215L344.823 28.7643L344.823 -50.15Z" fill="#D0D9DD"/>
<path opacity="0.5" d="M276.455 147.782L276.732 147.944L345.909 187.886L345.909 268.071L345.632 268.233L276.455 308.175L276.177 308.014L207 268.071L207 187.886L207.277 187.725L276.455 147.782ZM344.823 188.51L276.455 149.053L208.086 188.51L208.086 267.424L276.455 306.882L344.823 267.424L344.823 188.51Z" fill="#D0D9DD"/>
<path opacity="0.5" d="M276.455 227.344L276.732 227.506L345.909 267.448L345.909 347.633L345.632 347.795L276.455 387.737L207 347.633L207 267.448L207.277 267.286L276.455 227.344ZM344.823 268.072L276.455 228.614L208.086 268.072L208.086 346.986L276.455 386.443L344.823 346.986L344.823 268.072Z" fill="#D0D9DD"/>
<path opacity="0.5" d="M276.455 466.004L345.909 506.108L345.909 586.293L345.632 586.455L276.454 626.397L207 586.293L207 506.108L207.277 505.946L276.455 466.004ZM344.823 506.732L276.455 467.275L208.086 506.732L208.086 585.646L276.454 625.103L344.823 585.646L344.823 506.732Z" fill="#D0D9DD"/>
<path opacity="0.5" d="M483.177 28.464L483.455 28.6258L552.632 68.568L552.632 148.753L552.354 148.915L483.177 188.857L482.9 188.695L413.723 148.753L413.723 68.568L414 68.4064L483.177 28.464ZM551.546 69.1918L483.177 29.7346L414.809 69.1918L414.809 148.106L483.177 187.563L551.546 148.106L551.546 69.1918Z" fill="#D0D9DD"/>
<path opacity="0.5" d="M483.177 346.662L483.455 346.824L552.632 386.766L552.632 466.951L552.354 467.113L483.177 507.055L413.723 466.951L413.723 386.766L414 386.605L483.177 346.662ZM551.546 387.39L483.177 347.933L414.809 387.39L414.809 466.304L483.177 505.761L551.546 466.304L551.546 387.39Z" fill="#D0D9DD"/>
<path opacity="0.5" d="M552.1 -90.8778L552.378 -90.716L621.555 -50.7737L621.555 29.4112L621.277 29.5729L552.1 69.5151L551.823 69.3535L482.646 29.4112L482.646 -50.7737L482.923 -50.9354L552.1 -90.8778ZM620.469 -50.15L552.1 -89.6072L483.732 -50.15L483.732 28.7643L552.1 68.2215L620.469 28.7643L620.469 -50.15Z" fill="#D0D9DD"/>
<path opacity="0.5" d="M552.1 68.2214L552.378 68.3831L621.555 108.325L621.555 188.51L621.277 188.672L552.1 228.614L551.823 228.453L482.646 188.51L482.646 108.325L482.923 108.164L552.1 68.2214ZM620.469 108.949L552.1 69.492L483.732 108.949L483.732 187.863L552.1 227.321L620.469 187.863L620.469 108.949Z" fill="#D0D9DD"/>
<path opacity="0.5" d="M552.1 147.782L552.378 147.944L621.555 187.886L621.555 268.071L621.277 268.233L552.1 308.175L551.823 308.014L482.646 268.071L482.646 187.886L482.923 187.725L552.1 147.782ZM620.469 188.51L552.1 149.053L483.732 188.51L483.732 267.424L552.1 306.882L620.469 267.424L620.469 188.51Z" fill="#D0D9DD"/>
<path opacity="0.5" d="M552.1 386.443L621.555 426.547L621.555 506.732L621.277 506.894L552.1 546.836L482.646 506.732L482.646 426.547L482.923 426.385L552.1 386.443ZM620.469 427.171L552.1 387.714L483.732 427.171L483.732 506.085L552.1 545.542L620.469 506.085L620.469 427.171Z" fill="#D0D9DD"/>
<path opacity="0.5" d="M621 187.563L621.277 187.725L690.455 227.667L690.455 307.852L690.177 308.014L621 347.956L620.723 347.794L551.546 307.852L551.546 227.667L551.823 227.505L621 187.563ZM689.369 228.291L621 188.834L552.632 228.291L552.632 307.205L621 346.662L689.369 307.205L689.369 228.291Z" fill="#D0D9DD"/>
<path opacity="0.5" d="M758.823 -51.097L759.1 -50.9353L828.277 -10.993L828.277 69.1919L828 69.3537L758.823 109.296L758.546 109.134L689.369 69.1919L689.369 -10.993L689.646 -11.1547L758.823 -51.097ZM827.192 -10.3692L758.823 -49.8264L690.455 -10.3692L690.455 68.5451L758.823 108.002L827.192 68.5451L827.192 -10.3692Z" fill="#D0D9DD"/>
<path opacity="0.5" d="M345.378 -130.659L345.655 -130.497L414.832 -90.5545L414.832 -10.3696L414.555 -10.2079L345.378 29.7344L345.1 29.5727L275.923 -10.3696L275.923 -90.5545L276.2 -90.7162L345.378 -130.659ZM413.746 -89.9308L345.378 -129.388L277.009 -89.9308L277.009 -11.0164L345.378 28.4407L413.746 -11.0164L413.746 -89.9308Z" fill="#D0D9DD"/>
<path opacity="0.5" d="M345.378 -51.097L345.655 -50.9353L414.832 -10.993L414.832 69.1919L414.555 69.3537L345.378 109.296L345.1 109.134L275.923 69.1919L275.923 -10.993L276.2 -11.1547L345.378 -51.097ZM413.746 -10.3692L345.378 -49.8264L277.009 -10.3692L277.009 68.5451L345.378 108.002L413.746 68.5451L413.746 -10.3692Z" fill="#D0D9DD"/>
<path opacity="0.5" d="M345.378 187.563L345.655 187.725L414.832 227.667L414.832 307.852L414.555 308.014L345.378 347.956L345.1 347.794L275.923 307.852L275.923 227.667L276.2 227.505L345.378 187.563ZM413.746 228.291L345.378 188.834L277.009 228.291L277.009 307.205L345.378 346.662L413.746 307.205L413.746 228.291Z" fill="#D0D9DD"/>
<path opacity="0.5" d="M345.377 585.346L414.832 625.45L414.832 705.635L414.555 705.796L345.377 745.739L275.923 705.635L275.923 625.45L276.2 625.288L345.377 585.346ZM413.746 626.074L345.377 586.616L277.009 626.074L277.009 704.988L345.377 744.445L413.746 704.988L413.746 626.074Z" fill="#D0D9DD"/>
<path opacity="0.5" d="M345.377 426.224L414.832 466.328L414.832 546.513L414.555 546.674L345.377 586.617L275.923 546.513L275.923 466.328L276.2 466.166L345.377 426.224ZM413.746 466.952L345.377 427.494L277.009 466.952L277.009 545.866L345.377 585.323L413.746 545.866L413.746 466.952Z" fill="#D0D9DD"/>
<path opacity="0.5" d="M552.1 227.344L552.378 227.506L621.555 267.448L621.555 347.633L621.277 347.795L552.1 387.737L482.646 347.633L482.646 267.448L482.923 267.286L552.1 227.344ZM620.469 268.072L552.1 228.614L483.732 268.072L483.732 346.986L552.1 386.443L620.469 346.986L620.469 268.072Z" fill="#D0D9DD"/>
<path d="M758.823 107.055L759.239 107.286L828.555 147.297L828.555 227.806L828.139 228.037L758.823 268.048L758.407 267.817L689.091 227.806L689.091 147.297L689.507 147.066L758.823 107.055ZM826.914 148.268L758.823 108.972L690.732 148.268L690.732 226.859L758.823 266.154L826.914 226.859L826.914 148.268Z" fill="white"/>
<path d="M276.455 67.921L276.87 68.152L346.186 108.164L346.186 188.672L345.77 188.903L276.455 228.915L276.039 228.684L206.723 188.672L206.723 108.164L207.139 107.933L276.455 67.921ZM344.546 109.134L276.455 69.8385L208.363 109.134L208.363 187.725L276.455 227.02L344.546 187.725L344.546 109.134Z" fill="white"/>
<path d="M69.7318 107.702L70.1477 107.933L139.463 147.944L139.463 228.453L139.048 228.684L69.7318 268.695L69.3158 268.464L4.92945e-05 228.453L5.63327e-05 147.944L0.416011 147.713L69.7318 107.702ZM137.823 148.915L69.7318 109.619L1.64057 148.915L1.64057 227.506L69.7318 266.801L137.823 227.506L137.823 148.915Z" fill="white"/>
<path d="M69.7318 505.462L139.463 545.704L139.463 626.212L139.048 626.443L69.7318 666.455L1.87769e-05 626.212L2.58152e-05 545.704L0.41598 545.473L69.7318 505.462ZM137.823 546.674L69.7318 507.379L1.64054 546.674L1.64054 625.265L69.7318 664.561L137.823 625.265L137.823 546.674Z" fill="white"/>
<path d="M345.378 346.362L345.793 346.593L415.109 386.605L415.109 467.113L414.693 467.344L345.378 507.356L275.646 467.113L275.646 386.605L276.062 386.374L345.378 346.362ZM413.469 387.575L345.378 348.28L277.286 387.575L277.286 466.166L345.378 505.462L413.469 466.166L413.469 387.575Z" fill="white"/>
<path d="M345.378 107.702L345.793 107.933L415.109 147.944L415.109 228.453L414.693 228.684L345.378 268.695L344.962 268.464L275.646 228.453L275.646 147.944L276.062 147.713L345.378 107.702ZM413.469 148.915L345.378 109.619L277.286 148.915L277.286 227.506L345.378 266.801L413.469 227.506L413.469 148.915Z" fill="white"/>
<path d="M483.177 187.24L483.593 187.471L552.909 227.482L552.909 307.991L552.493 308.222L483.177 348.233L482.761 348.002L413.446 307.991L413.446 227.482L413.862 227.251L483.177 187.24ZM551.268 228.453L483.177 189.157L415.086 228.453L415.086 307.044L483.177 346.339L551.268 307.044L551.268 228.453Z" fill="white"/>
<path d="M138.655 306.582L139.071 306.813L208.386 346.824L208.386 427.333L207.971 427.564L138.655 467.575L68.9231 427.333L68.9231 346.824L69.339 346.593L138.655 306.582ZM206.746 347.795L138.655 308.499L70.5635 347.795L70.5635 426.385L138.655 465.681L206.746 426.385L206.746 347.795Z" fill="white"/>
<path d="M138.655 386.12L208.386 426.362L208.386 506.871L207.971 507.102L138.655 547.113L68.9231 506.871L68.9231 426.362L69.339 426.131L138.655 386.12ZM206.746 427.333L138.655 388.037L70.5635 427.333L70.5635 505.923L138.655 545.219L206.746 505.924L206.746 427.333Z" fill="white"/>
<path d="M207.555 -130.982L207.971 -130.751L277.286 -90.7392L277.286 -10.2309L276.87 -9.99982L207.555 30.0117L207.139 29.7808L137.823 -10.2309L137.823 -90.7392L138.239 -90.9702L207.555 -130.982ZM275.646 -89.7689L207.555 -129.064L139.463 -89.7689L139.463 -11.178L207.555 28.1175L275.646 -11.178L275.646 -89.7689Z" fill="white"/>
<path d="M207.555 266.801L207.971 267.032L277.286 307.043L277.286 387.552L276.87 387.783L207.555 427.794L137.823 387.552L137.823 307.043L138.239 306.812L207.555 266.801ZM275.646 308.014L207.555 268.718L139.463 308.014L139.463 386.605L207.555 425.9L275.646 386.605L275.646 308.014Z" fill="white"/>
<path d="M207.555 664.584L277.286 704.826L277.286 785.335L276.87 785.566L207.555 825.577L137.823 785.335L137.823 704.826L138.239 704.595L207.555 664.584ZM275.646 705.796L207.555 666.501L139.463 705.796L139.463 784.387L207.555 823.683L275.646 784.387L275.646 705.796Z" fill="white"/>
<path d="M276.455 306.582L276.87 306.813L346.186 346.824L346.186 427.333L345.77 427.564L276.455 467.575L206.723 427.333L206.723 346.824L207.139 346.593L276.455 306.582ZM344.546 347.795L276.455 308.499L208.363 347.795L208.363 426.385L276.455 465.681L344.546 426.385L344.546 347.795Z" fill="white"/>
<path d="M276.455 545.242L346.186 585.484L346.186 665.993L345.77 666.224L276.455 706.235L206.723 665.993L206.723 585.484L207.139 585.253L276.455 545.242ZM344.546 586.455L276.455 547.159L208.363 586.455L208.363 665.046L276.455 704.341L344.546 665.046L344.546 586.455Z" fill="white"/>
<path d="M483.177 -51.4208L483.593 -51.1898L552.909 -11.1781L552.909 69.3302L552.493 69.5612L483.177 109.573L482.761 109.342L413.446 69.3302L413.446 -11.1782L413.862 -11.4092L483.177 -51.4208ZM551.268 -10.2079L483.177 -49.5033L415.086 -10.2079L415.086 68.383L483.177 107.678L551.268 68.383L551.268 -10.2079Z" fill="white"/>
<path d="M621 28.1407L621.416 28.3718L690.732 68.3834L690.732 148.892L690.316 149.123L621 189.134L620.584 188.903L551.268 148.892L551.268 68.3834L551.684 68.1523L621 28.1407ZM689.091 69.3537L621 30.0582L552.909 69.3537L552.909 147.945L621 187.24L689.091 147.945L689.091 69.3537Z" fill="white"/>
<path d="M621 266.801L621.416 267.032L690.732 307.043L690.732 387.552L690.316 387.783L621 427.794L551.268 387.552L551.268 307.043L551.684 306.812L621 266.801ZM689.091 308.014L621 268.718L552.909 308.014L552.909 386.605L621 425.9L689.091 386.605L689.091 308.014Z" fill="white"/>
<path d="M621 425.9L690.732 466.143L690.732 546.651L690.316 546.882L621 586.894L551.268 546.651L551.268 466.143L551.684 465.912L621 425.9ZM689.091 467.113L621 427.818L552.909 467.113L552.909 545.704L621 585L689.091 545.704L689.091 467.113Z" fill="white"/>
<path d="M689.9 -91.201L690.316 -90.97L759.632 -50.9584L759.632 29.5499L759.216 29.7809L689.9 69.7925L689.484 69.5615L620.168 29.5499L620.168 -50.9584L620.584 -51.1895L689.9 -91.201ZM757.991 -49.9881L689.9 -89.2836L621.809 -49.9881L621.809 28.6027L689.9 67.8982L757.991 28.6027L757.991 -49.9881Z" fill="white"/>
<path opacity="0.5" d="M141.381 67.0664L141.381 70.2082L138.655 71.8022L135.905 70.2082L135.905 67.0664L138.655 65.4955L141.381 67.0664Z" fill="#D0D9DD"/>
<path opacity="0.5" d="M140.734 146.928L140.734 149.33L138.655 150.532L136.552 149.33L136.552 146.928L138.655 145.704L140.734 146.928Z" fill="#D0D9DD"/>
<path opacity="0.5" d="M142.467 543.325L142.467 547.737L138.655 549.932L134.819 547.737L134.819 543.325L138.655 541.107L142.467 543.325Z" fill="#D0D9DD"/>
<path opacity="0.5" d="M143.599 860.599L143.599 866.305L138.655 869.169L133.687 866.305L133.687 860.599L138.655 857.734L143.599 860.599Z" fill="#D0D9DD"/>
<path opacity="0.5" d="M146.21 938.566L146.21 947.298L138.655 951.665L131.076 947.298L131.076 938.566L138.655 934.177L146.21 938.566Z" fill="#D0D9DD"/>
<path opacity="0.5" d="M75.2539 25.53L75.2539 31.9059L69.7318 35.0708L64.2327 31.9059L64.2327 25.53L69.7318 22.342L75.2539 25.53Z" fill="#D0D9DD"/>
<path opacity="0.5" d="M75.6005 501.904L75.6005 508.673L69.7318 512.045L63.8862 508.673L63.8862 501.904L69.7318 498.508L75.6005 501.904Z" fill="#D0D9DD"/>
<path opacity="0.5" d="M73.1052 582.759L73.1052 586.64L69.7318 588.604L66.3815 586.64L66.3815 582.759L69.7318 580.818L73.1052 582.759Z" fill="#D0D9DD"/>
<path opacity="0.5" d="M72.0192 662.805L72.0192 665.462L69.7318 666.778L67.4443 665.462L67.4443 662.805L69.7318 661.488L72.0192 662.805Z" fill="#D0D9DD"/>
<path opacity="0.5" d="M74.7687 740.657L74.7687 746.455L69.7318 749.366L64.7179 746.455L64.7179 740.657L69.7318 737.769L74.7687 740.657Z" fill="#D0D9DD"/>
<path opacity="0.5" d="M72.0653 823.29L72.0653 825.97L69.7317 827.31L67.4212 825.97L67.4212 823.29L69.7317 821.951L72.0653 823.29Z" fill="#D0D9DD"/>
<path opacity="0.5" d="M74.6994 901.327L74.6994 907.056L69.7318 909.897L64.7873 907.056L64.7873 901.327L69.7318 898.462L74.6994 901.327Z" fill="#D0D9DD"/>
<path opacity="0.5" d="M72.4581 980.264L72.4581 983.429L69.7317 985L67.0052 983.429L67.0052 980.264L69.7317 978.693L72.4581 980.264Z" fill="#D0D9DD"/>
<path opacity="0.5" d="M283.224 64.7335L283.224 72.5417L276.455 76.4458L269.708 72.5417L269.708 64.7335L276.455 60.8524L283.224 64.7335Z" fill="#D0D9DD"/>
<path opacity="0.5" d="M278.395 464.941L278.395 467.159L276.454 468.268L274.537 467.159L274.537 464.941L276.454 463.809L278.395 464.941Z" fill="#D0D9DD"/>
<path opacity="0.5" d="M278.049 544.595L278.049 546.443L276.455 547.367L274.86 546.443L274.86 544.595L276.455 543.671L278.049 544.595Z" fill="#D0D9DD"/>
<path opacity="0.5" d="M281.168 622.285L281.168 627.737L276.454 630.463L271.741 627.737L271.741 622.285L276.454 619.559L281.168 622.285Z" fill="#D0D9DD"/>
<path opacity="0.5" d="M281.26 701.708L281.26 707.252L276.455 710.024L271.672 707.252L271.672 701.708L276.455 698.936L281.26 701.708Z" fill="#D0D9DD"/>
<path opacity="0.5" d="M210.05 106.708L210.05 109.573L207.555 111.005L205.059 109.573L205.059 106.708L207.555 105.253L210.05 106.708Z" fill="#D0D9DD"/>
<path opacity="0.5" d="M209.218 186.616L209.218 188.534L207.555 189.481L205.891 188.534L205.891 186.616L207.555 185.646L209.218 186.616Z" fill="#D0D9DD"/>
<path opacity="0.5" d="M211.182 344.329L211.182 348.511L207.555 350.613L203.927 348.511L203.927 344.329L207.555 342.227L211.182 344.329Z" fill="#D0D9DD"/>
<path opacity="0.5" d="M209.403 424.791L209.403 426.917L207.555 427.979L205.706 426.917L205.706 424.791L207.555 423.729L209.403 424.791Z" fill="#D0D9DD"/>
<path opacity="0.5" d="M211.113 582.643L211.113 586.755L207.555 588.811L203.996 586.755L203.996 582.643L207.555 580.61L211.113 582.643Z" fill="#D0D9DD"/>
<path opacity="0.5" d="M213.4 900.819L213.4 907.564L207.555 910.937L201.709 907.564L201.709 900.819L207.555 897.446L213.4 900.819Z" fill="#D0D9DD"/>
<path opacity="0.5" d="M557.253 65.6574L557.253 71.6176L552.1 74.5977L546.948 71.6176L546.948 65.6574L552.1 62.7005L557.253 65.6574Z" fill="#D0D9DD"/>
<path opacity="0.5" d="M557.391 145.057L557.391 151.178L552.1 154.251L546.786 151.178L546.786 145.057L552.1 142.007L557.391 145.057Z" fill="#D0D9DD"/>
<path opacity="0.5" d="M490.71 263.405L490.71 272.091L483.177 276.434L475.668 272.091L475.668 263.405L483.177 259.062L490.71 263.405Z" fill="#D0D9DD"/>
<path opacity="0.5" d="M421.81 302.747L421.81 311.433L414.277 315.776L406.768 311.433L406.768 302.747L414.277 298.404L421.81 302.747Z" fill="#D0D9DD"/>
<path opacity="0.5" d="M554.572 464.618L554.572 467.483L552.1 468.915L549.605 467.483L549.605 464.618L552.1 463.163L554.572 464.618Z" fill="#D0D9DD"/>
<path opacity="0.5" d="M348.15 27.1012L348.15 30.3122L345.378 31.9062L342.605 30.3122L342.605 27.1012L345.378 25.5072L348.15 27.1012Z" fill="#D0D9DD"/>
<path opacity="0.5" d="M348.22 106.501L348.22 109.781L345.378 111.444L342.513 109.781L342.513 106.501L345.378 104.837L348.22 106.501Z" fill="#D0D9DD"/>
<path opacity="0.5" d="M348.358 185.854L348.358 189.296L345.378 191.005L342.397 189.296L342.397 185.854L345.378 184.121L348.358 185.854Z" fill="#D0D9DD"/>
<path opacity="0.5" d="M348.335 265.276L348.335 268.695L345.378 270.405L342.397 268.695L342.397 265.276L345.378 263.567L348.335 265.276Z" fill="#D0D9DD"/>
<path opacity="0.5" d="M349.375 344.121L349.375 348.719L345.378 351.029L341.38 348.719L341.38 344.121L345.378 341.811L349.375 344.121Z" fill="#D0D9DD"/>
<path opacity="0.5" d="M694.059 225.196L694.059 230.001L689.9 232.403L685.764 230.001L685.764 225.196L689.9 222.816L694.059 225.196Z" fill="#D0D9DD"/>
<path opacity="0.5" d="M693.62 304.942L693.62 309.215L689.9 311.364L686.203 309.215L686.203 304.942L689.9 302.816L693.62 304.942Z" fill="#D0D9DD"/>
<path opacity="0.5" d="M696.947 461.985L696.947 470.093L689.9 474.159L682.876 470.093L682.876 461.985L689.9 457.942L696.947 461.985Z" fill="#D0D9DD"/>
<path opacity="0.5" d="M624.651 185.461L624.651 189.665L621 191.768L617.35 189.665L617.35 185.461L621 183.359L624.651 185.461Z" fill="#D0D9DD"/>
<path opacity="0.5" d="M622.733 345.415L622.733 347.425L621 348.418L619.267 347.425L619.267 345.415L621 344.422L622.733 345.415Z" fill="#D0D9DD"/>
<path opacity="0.5" d="M625.991 502.389L625.991 508.165L621 511.052L616.009 508.165L616.009 502.389L621 499.502L625.991 502.389Z" fill="#D0D9DD"/>
<path opacity="0.5" d="M832.852 65.6803L832.852 71.5942L827.723 74.5513L822.617 71.5942L822.617 65.6803L827.723 62.7233L832.852 65.6803Z" fill="#D0D9DD"/>
<path opacity="0.5" d="M762.451 264.907L762.451 269.088L758.823 271.19L755.195 269.088L755.195 264.907L758.823 262.805L762.451 264.907Z" fill="#D0D9DD"/>
<path opacity="0.5" d="M421.07 621.823L421.07 629.654L414.277 633.582L407.484 629.654L407.484 621.823L414.277 617.919L421.07 621.823Z" fill="#D0D9DD"/>
<path d="M557.045 224.757L557.045 230.463L552.1 233.327L547.156 230.463L547.156 224.757L552.1 221.892L557.045 224.757Z" fill="white"/>
<path d="M419.222 145.196L419.222 150.902L414.277 153.766L409.333 150.902L409.333 145.196L414.277 142.331L419.222 145.196Z" fill="white"/>
<path d="M559.609 382.215L559.609 390.902L552.1 395.245L544.568 390.902L544.568 382.215L552.1 377.872L559.609 382.215Z" fill="white"/>
<path d="M556.074 543.232L556.074 547.829L552.1 550.116L548.126 547.829L548.126 543.232L552.1 540.922L556.074 543.232Z" fill="white"/>
<path d="M692.811 146.443L692.811 149.793L689.9 151.479L687.012 149.793L687.012 146.443L689.9 144.78L692.811 146.443Z" fill="white"/>
<path d="M146.742 222.931L146.742 232.264L138.655 236.931L130.568 232.264L130.568 222.931L138.655 218.265L146.742 222.931Z" fill="white"/>
<path d="M142.444 304.895L142.444 309.261L138.655 311.456L134.866 309.261L134.866 304.895L138.655 302.701L142.444 304.895Z" fill="white"/>
<path d="M141.058 385.173L141.058 387.968L138.655 389.354L136.229 387.968L136.229 385.173L138.655 383.763L141.058 385.173Z" fill="white"/>
<path d="M142.883 463.602L142.883 468.476L138.655 470.925L134.426 468.476L134.426 463.602L138.655 461.153L142.883 463.602Z" fill="white"/>
<path d="M141.011 623.625L141.011 626.374L138.655 627.76L136.275 626.374L136.275 623.625L138.655 622.262L141.011 623.625Z" fill="white"/>
<path d="M142.883 702.054L142.883 706.929L138.655 709.377L134.403 706.929L134.403 702.054L138.655 699.606L142.883 702.054Z" fill="white"/>
<path d="M142.49 781.754L142.49 786.189L138.655 788.407L134.796 786.189L134.796 781.754L138.655 779.513L142.49 781.754Z" fill="white"/>
<path d="M73.0358 106.246L73.0358 110.035L69.7318 111.929L66.4508 110.035L66.4508 106.246L69.7318 104.352L73.0358 106.246Z" fill="white"/>
<path d="M74.2372 184.976L74.2372 190.174L69.7317 192.761L65.2262 190.174L65.2262 184.976L69.7317 182.366L74.2372 184.976Z" fill="white"/>
<path d="M73.4286 264.861L73.4286 269.134L69.7318 271.26L66.0349 269.134L66.0349 264.861L69.7318 262.735L73.4286 264.861Z" fill="white"/>
<path d="M72.4814 344.837L72.4814 348.002L69.7318 349.596L66.9823 348.002L66.9823 344.837L69.7318 343.243L72.4814 344.837Z" fill="white"/>
<path d="M282.323 144.733L282.323 151.502L276.455 154.875L270.609 151.502L270.609 144.733L276.455 141.361L282.323 144.733Z" fill="white"/>
<path d="M278.557 226.397L278.557 228.799L276.455 230L274.375 228.799L274.375 226.397L276.455 225.195L278.557 226.397Z" fill="white"/>
<path d="M281.769 304.018L281.769 310.139L276.455 313.212L271.163 310.139L271.163 304.018L276.455 300.968L281.769 304.018Z" fill="white"/>
<path d="M279.25 782.354L279.25 785.566L276.455 787.183L273.682 785.566L273.682 782.354L276.455 780.76L279.25 782.354Z" fill="white"/>
<path d="M282.3 860.068L282.3 866.813L276.455 870.186L270.632 866.813L270.632 860.068L276.455 856.718L282.3 860.068Z" fill="white"/>
<path d="M211.621 26.3618L211.621 31.0514L207.555 33.4077L203.488 31.0514L203.488 26.3618L207.555 24.0055L211.621 26.3618Z" fill="white"/>
<path d="M209.472 265.877L209.472 268.118L207.555 269.227L205.637 268.118L205.637 265.877L207.555 264.768L209.472 265.877Z" fill="white"/>
<path d="M212.615 502.366L212.615 508.187L207.555 511.121L202.495 508.187L202.495 502.366L207.555 499.432L212.615 502.366Z" fill="white"/>
<path d="M211.806 661.673L211.806 666.594L207.555 669.065L203.303 666.594L203.303 661.673L207.555 659.224L211.806 661.673Z" fill="white"/>
<path d="M209.75 742.297L209.75 744.838L207.555 746.108L205.36 744.838L205.36 742.297L207.555 741.026L209.75 742.297Z" fill="white"/>
<path d="M209.981 823.244L209.981 826.039L207.555 827.425L205.129 826.039L205.129 823.244L207.555 821.835L209.981 823.244Z" fill="white"/>
<path d="M348.959 423.775L348.959 427.91L345.377 429.989L341.796 427.91L341.796 423.775L345.377 421.719L348.959 423.775Z" fill="white"/>
<path d="M347.757 503.914L347.757 506.663L345.378 508.026L342.998 506.663L342.998 503.914L345.378 502.528L347.757 503.914Z" fill="white"/>
<path d="M348.035 583.175L348.035 586.247L345.377 587.795L342.697 586.247L342.697 583.175L345.377 581.627L348.035 583.175Z" fill="white"/>
<path d="M349.975 661.465L349.975 666.801L345.377 669.458L340.756 666.801L340.756 661.465L345.377 658.808L349.975 661.465Z" fill="white"/>
<path d="M349.398 741.257L349.398 745.878L345.377 748.211L341.357 745.878L341.357 741.257L345.377 738.924L349.398 741.257Z" fill="white"/>
<path d="M694.937 383.671L694.937 389.469L689.9 392.357L684.886 389.469L684.886 383.671L689.9 380.76L694.937 383.671Z" fill="white"/>
<path d="M626.199 25.7152L626.199 31.6984L621 34.7017L615.825 31.6984L615.825 25.7152L621 22.712L626.199 25.7152Z" fill="white"/>
<path d="M626.638 104.884L626.638 111.398L621 114.632L615.386 111.398L615.386 104.884L621 101.649L626.638 104.884Z" fill="white"/>
<path d="M624.397 423.89L624.397 427.818L621 429.781L617.604 427.818L617.604 423.89L621 421.927L624.397 423.89Z" fill="white"/>
<path d="M624.859 582.481L624.859 586.94L621 589.181L617.142 586.94L617.142 582.481L621 580.24L624.859 582.481Z" fill="white"/>
<path d="M832.459 224.872L832.459 230.324L827.723 233.073L822.986 230.324L822.986 224.872L827.723 222.146L832.459 224.872Z" fill="white"/>
<path d="M764.576 25.3914L764.576 32.0446L758.823 35.3481L753.07 32.0446L753.07 25.3914L758.823 22.0648L764.576 25.3914Z" fill="white"/>
<path d="M761.503 106.593L761.503 109.689L758.823 111.236L756.12 109.689L756.12 106.593L758.823 105.045L761.503 106.593Z" fill="white"/>
</g>
<defs>
<clipPath id="clip0_718_379">
<rect width="1035" height="1235" fill="white" transform="translate(1035 985) rotate(-180)"/>
</clipPath>
</defs>
</svg>
