<svg width="1920" height="9949" viewBox="0 0 1920 9949" fill="none" xmlns="http://www.w3.org/2000/svg">
<g clip-path="url(#clip0_718_14)">
<rect width="1920" height="9949" fill="#11111B"/>
<g opacity="0.3" filter="url(#filter0_f_718_14)">
<circle cx="-56.5" cy="10026.5" r="694.5" fill="#B95DFE"/>
</g>
<g style="mix-blend-mode:overlay" clip-path="url(#clip1_718_14)">
<path opacity="0.5" d="M254.51 9932.53L191.816 9968.75L191.816 10041.2L192.067 10041.3L254.51 10077.4L317.205 10041.2L317.205 9968.75L316.954 9968.61L254.51 9932.53ZM192.796 9969.32L254.51 9933.68L316.224 9969.32L316.224 10040.6L254.51 10076.2L192.796 10040.6L192.796 9969.32Z" fill="#D0D9DD"/>
<path opacity="0.5" d="M67.9087 9896.59L5.21447 9932.82L5.21447 10005.3L5.46475 10005.4L67.9087 10041.5L130.603 10005.3L130.603 9932.82L130.353 9932.67L67.9087 9896.59ZM6.19472 9933.38L67.9087 9897.74L129.623 9933.38L129.623 10004.7L67.9087 10040.3L6.19472 10004.7L6.19472 9933.38Z" fill="#D0D9DD"/>
<path opacity="0.5" d="M67.9087 9609.16L67.6584 9609.3L5.21447 9645.39L5.21447 9717.82L5.46475 9717.96L67.9087 9754.04L130.603 9717.82L130.603 9645.39L130.353 9645.24L67.9087 9609.16ZM6.19472 9645.95L67.9087 9610.31L129.623 9645.95L129.623 9717.23L67.9087 9752.88L6.19472 9717.23L6.19472 9645.95Z" fill="#D0D9DD"/>
<path opacity="0.5" d="M130.102 9860.68L67.4081 9896.91L67.4081 9969.34L67.6584 9969.48L130.102 10005.6L192.796 9969.34L192.796 9896.91L192.546 9896.76L130.102 9860.68ZM68.3883 9897.47L130.102 9861.83L191.816 9897.47L191.816 9968.75L130.102 10004.4L68.3883 9968.75L68.3883 9897.47Z" fill="#D0D9DD"/>
<path opacity="0.5" d="M130.102 9788.81L67.4081 9825.04L67.4081 9897.47L67.6584 9897.62L130.102 9933.7L192.796 9897.47L192.796 9825.04L192.546 9824.89L130.102 9788.81ZM68.3883 9825.6L130.102 9789.96L191.816 9825.6L191.816 9896.89L130.102 9932.53L68.3883 9896.89L68.3883 9825.6Z" fill="#D0D9DD"/>
<path opacity="0.5" d="M254.51 9788.81L191.816 9825.04L191.816 9897.47L192.066 9897.62L254.51 9933.7L317.205 9897.47L317.205 9825.04L316.954 9824.89L254.51 9788.81ZM192.796 9825.6L254.51 9789.96L316.224 9825.6L316.224 9896.89L254.51 9932.53L192.796 9896.89L192.796 9825.6Z" fill="#D0D9DD"/>
<path opacity="0.5" d="M130.102 9573.22L129.852 9573.37L67.4081 9609.45L67.4081 9681.88L67.6584 9682.03L130.102 9718.11L192.796 9681.88L192.796 9609.45L192.546 9609.3L130.102 9573.22ZM68.3883 9610.01L130.102 9574.37L191.816 9610.01L191.816 9681.3L130.102 9716.94L68.3883 9681.3L68.3883 9610.01Z" fill="#D0D9DD"/>
<path opacity="0.5" d="M5.69412 9573.22L5.44385 9573.37L-57.0001 9609.43L-57.0001 9681.86L-56.7498 9682.01L5.69413 9718.09L68.3883 9681.86L68.3883 9609.43L68.138 9609.28L5.69412 9573.2L5.69412 9573.22ZM-55.999 9610.01L5.71498 9574.37L67.4289 9610.01L67.4289 9681.3L5.71499 9716.94L-55.999 9681.3L-55.999 9610.01Z" fill="#D0D9DD"/>
<path opacity="0.5" d="M192.296 9752.88L129.602 9789.1L129.602 9861.54L129.852 9861.68L192.296 9897.76L254.99 9861.53L254.99 9789.1L254.74 9788.96L192.296 9752.88ZM130.582 9789.67L192.296 9754.02L254.01 9789.67L254.01 9860.95L192.296 9896.59L130.582 9860.95L130.582 9789.67Z" fill="#D0D9DD"/>
<path opacity="0.5" d="M67.9086 9393.55L67.6583 9393.7L5.21441 9429.78L5.21441 9502.21L5.46469 9502.36L67.9086 9538.44L68.1589 9538.29L130.603 9502.21L130.603 9429.78L130.353 9429.63L67.9086 9393.55ZM6.19465 9430.34L67.9086 9394.7L129.623 9430.34L129.623 9501.63L67.9086 9537.27L6.19466 9501.63L6.19465 9430.34Z" fill="#D0D9DD"/>
<path opacity="0.5" d="M130.102 9500.96L129.852 9501.1L67.4081 9537.18L67.4081 9609.62L67.6584 9609.76L130.102 9645.84L130.353 9645.7L192.796 9609.62L192.796 9537.18L192.546 9537.04L130.102 9500.96ZM68.3883 9537.75L130.102 9502.11L191.816 9537.75L191.816 9609.03L130.102 9644.68L68.3883 9609.03L68.3883 9537.75Z" fill="#D0D9DD"/>
<path opacity="0.5" d="M130.102 9716.94L67.4081 9753.17L67.4081 9825.6L67.6584 9825.75L130.102 9861.83L192.796 9825.6L192.796 9753.17L192.546 9753.02L130.102 9716.94ZM68.3883 9753.73L130.102 9718.09L191.816 9753.73L191.816 9825.02L130.102 9860.66L68.3883 9825.02L68.3883 9753.73Z" fill="#D0D9DD"/>
<path d="M316.704 9825.02L253.76 9861.37L253.76 9934.09L254.135 9934.3L316.704 9970.44L379.649 9934.09L379.649 9861.37L379.273 9861.16L316.704 9825.02ZM255.24 9862.24L316.704 9826.75L378.168 9862.24L378.168 9933.24L316.704 9968.73L255.24 9933.24L255.24 9862.24Z" fill="white"/>
<path d="M67.9086 9752.58L4.96416 9788.94L4.96417 9861.66L5.33958 9861.87L67.9086 9898.01L130.853 9861.66L130.853 9788.94L130.478 9788.73L67.9086 9752.58ZM6.44497 9789.81L67.9086 9754.32L129.372 9789.81L129.372 9860.8L67.9086 9896.3L6.44497 9860.8L6.44497 9789.81Z" fill="white"/>
<path d="M67.9086 9465.11L67.5332 9465.32L4.96416 9501.46L4.96417 9574.18L5.33958 9574.39L67.9086 9610.54L68.2841 9610.33L130.853 9574.18L130.853 9501.46L130.478 9501.25L67.9086 9465.11ZM6.44497 9502.34L67.9086 9466.84L129.372 9502.34L129.372 9573.33L67.9086 9608.82L6.44497 9573.33L6.44497 9502.34Z" fill="white"/>
<path d="M192.296 9896.32L129.351 9932.67L129.351 10005.4L129.727 10005.6L192.296 10041.7L255.24 10005.4L255.24 9932.67L254.865 9932.46L192.296 9896.32ZM130.832 9933.55L192.296 9898.05L253.76 9933.55L253.76 10004.5L192.296 10040L130.832 10004.5L130.832 9933.55Z" fill="white"/>
<path d="M192.296 9680.74L191.921 9680.94L129.351 9717.09L129.351 9789.81L129.727 9790.02L192.296 9826.16L255.24 9789.81L255.24 9717.09L254.865 9716.88L192.296 9680.74ZM130.832 9717.96L192.296 9682.47L253.76 9717.96L253.76 9788.96L192.296 9824.45L130.832 9788.96L130.832 9717.96Z" fill="white"/>
<path d="M192.296 9537L191.92 9537.21L129.351 9573.35L129.351 9646.07L129.727 9646.28L192.296 9682.43L192.671 9682.22L255.24 9646.07L255.24 9573.35L254.865 9573.14L192.296 9537ZM130.832 9574.23L192.296 9538.73L253.76 9574.23L253.76 9645.22L192.296 9680.71L130.832 9645.22L130.832 9574.23Z" fill="white"/>
<path opacity="0.5" d="M72.3719 9395.74L72.3719 9390.59L67.9086 9388L63.4245 9390.59L63.4245 9395.74L67.9086 9398.33L72.3719 9395.74Z" fill="#D0D9DD"/>
<path opacity="0.5" d="M134.899 9936.14L134.899 9930.61L130.102 9927.85L125.305 9930.61L125.305 9936.14L130.102 9938.91L134.899 9936.14Z" fill="#D0D9DD"/>
<path opacity="0.5" d="M74.687 9829.23L74.687 9821.38L67.9087 9817.46L61.1095 9821.38L61.1095 9829.23L67.9087 9833.15L74.687 9829.23Z" fill="#D0D9DD"/>
<path opacity="0.5" d="M12.4933 9793.71L12.4933 9785.87L5.69415 9781.94L-1.08417 9785.87L-1.08417 9793.71L5.69415 9797.64L12.4933 9793.71Z" fill="#D0D9DD"/>
<path opacity="0.5" d="M258.244 9863.75L258.244 9859.43L254.51 9857.26L250.756 9859.43L250.756 9863.75L254.51 9865.92L258.244 9863.75Z" fill="#D0D9DD"/>
<path opacity="0.5" d="M257.847 9791.71L257.847 9787.85L254.51 9785.93L251.153 9787.85L251.153 9791.71L254.51 9793.65L257.847 9791.71Z" fill="#D0D9DD"/>
<path opacity="0.5" d="M260.851 9649.85L260.851 9642.53L254.51 9638.87L248.149 9642.53L248.149 9649.85L254.51 9653.52L260.851 9649.85Z" fill="#D0D9DD"/>
<path opacity="0.5" d="M195.591 9899.64L195.591 9895.84L192.296 9893.94L189.001 9895.84L189.001 9899.64L192.296 9901.56L195.591 9899.64Z" fill="#D0D9DD"/>
<path opacity="0.5" d="M193.86 9755.15L193.86 9753.33L192.296 9752.44L190.732 9753.33L190.732 9755.15L192.296 9756.07L193.86 9755.15Z" fill="#D0D9DD"/>
<path opacity="0.5" d="M196.822 9613.35L196.822 9608.14L192.296 9605.53L187.791 9608.14L187.791 9613.35L192.296 9615.96L196.822 9613.35Z" fill="#D0D9DD"/>
<path opacity="0.5" d="M319.979 9827.9L319.979 9824.1L316.704 9822.22L313.43 9824.1L313.43 9827.9L316.704 9829.77L319.979 9827.9Z" fill="#D0D9DD"/>
<path opacity="0.5" d="M11.8259 9505.47L11.8259 9498.39L5.69414 9494.86L-0.437623 9498.39L-0.437622 9505.47L5.69414 9509.01L11.8259 9505.47Z" fill="#D0D9DD"/>
<path d="M132.334 9647.49L132.334 9644.9L130.102 9643.59L127.85 9644.9L127.85 9647.49L130.102 9648.79L132.334 9647.49Z" fill="white"/>
<path d="M134.566 9864.16L134.566 9859.01L130.102 9856.42L125.639 9859.01L125.639 9864.16L130.102 9866.75L134.566 9864.16Z" fill="white"/>
<path d="M196.759 9828.23L196.759 9823.08L192.296 9820.49L187.833 9823.08L187.833 9828.23L192.296 9830.82L196.759 9828.23Z" fill="white"/>
<path d="M10.1574 9936.01L10.1574 9930.86L5.69415 9928.27L1.2309 9930.86L1.2309 9936.01L5.69415 9938.6L10.1574 9936.01Z" fill="white"/>
<path d="M136.881 9721.91L136.881 9714.06L130.102 9710.14L123.303 9714.06L123.303 9721.91L130.102 9725.83L136.881 9721.91Z" fill="white"/>
<path d="M133.69 9576.48L133.69 9572.33L130.102 9570.24L126.515 9572.33L126.515 9576.48L130.102 9578.54L133.69 9576.48Z" fill="white"/>
<path d="M257.118 9934.89L257.118 9931.86L254.51 9930.36L251.883 9931.86L251.883 9934.89L254.51 9936.41L257.118 9934.89Z" fill="white"/>
<path d="M71.1205 9684.37L71.1205 9680.63L67.9086 9678.77L64.6759 9680.63L64.6759 9684.37L67.9086 9686.22L71.1205 9684.37Z" fill="white"/>
<path d="M259.036 9720.61L259.036 9715.38L254.51 9712.75L249.964 9715.38L249.964 9720.61L254.51 9723.22L259.036 9720.61Z" fill="white"/>
<path d="M195.383 9684.28L195.383 9680.71L192.296 9678.94L189.23 9680.71L189.23 9684.28L192.296 9686.06L195.383 9684.28Z" fill="white"/>
<path d="M195.8 9541.02L195.8 9536.98L192.296 9534.97L188.813 9536.98L188.813 9541.02L192.296 9543.03L195.8 9541.02Z" fill="white"/>
<path d="M381.129 9934.66L381.129 9932.09L378.898 9930.82L376.687 9932.09L376.687 9934.66L378.898 9935.93L381.129 9934.66Z" fill="white"/>
</g>
<g opacity="0.2" filter="url(#filter1_f_718_14)">
<circle cx="2033.5" cy="4696.5" r="467.5" fill="#8FE600"/>
</g>
<g opacity="0.3" filter="url(#filter2_f_718_14)">
<circle cx="-6.5" cy="5972.5" r="604.5" fill="#B95DFE"/>
</g>
<g style="mix-blend-mode:overlay" clip-path="url(#clip2_718_14)">
<path opacity="0.5" d="M314.9 6051.68L315.177 6051.85L384.354 6091.79L384.354 6171.97L384.077 6172.13L314.9 6212.08L314.623 6211.91L245.446 6171.97L245.446 6091.79L245.723 6091.63L314.9 6051.68ZM383.268 6092.41L314.9 6052.95L246.531 6092.41L246.531 6171.33L314.9 6210.78L383.268 6171.33L383.268 6092.41Z" fill="#D0D9DD"/>
<path opacity="0.5" d="M108.177 5852.78L108.454 5852.94L177.632 5892.88L177.632 5973.07L177.354 5973.23L108.177 6013.17L107.9 6013.01L38.7228 5973.07L38.7228 5892.88L39.0001 5892.72L108.177 5852.78ZM176.546 5893.51L108.177 5854.05L39.8087 5893.51L39.8087 5972.42L108.177 6011.88L176.546 5972.42L176.546 5893.51Z" fill="#D0D9DD"/>
<path opacity="0.5" d="M108.177 6091.46L108.454 6091.63L177.632 6131.57L177.632 6211.75L177.354 6211.91L108.177 6251.86L107.9 6251.7L38.7227 6211.75L38.7227 6131.57L39.0001 6131.41L108.177 6091.46ZM176.546 6132.19L108.177 6092.73L39.8087 6132.19L39.8087 6211.11L108.177 6250.56L176.546 6211.11L176.546 6132.19Z" fill="#D0D9DD"/>
<path opacity="0.5" d="M108.177 6409.66L108.454 6409.82L177.632 6449.77L177.632 6529.95L177.354 6530.11L108.177 6570.06L38.7227 6529.95L38.7227 6449.77L39 6449.6L108.177 6409.66ZM176.546 6450.39L108.177 6410.93L39.8086 6450.39L39.8086 6529.3L108.177 6568.76L176.546 6529.3L176.546 6450.39Z" fill="#D0D9DD"/>
<path opacity="0.5" d="M177.1 5813L177.377 5813.16L246.555 5853.1L246.555 5933.29L246.277 5933.45L177.1 5973.39L176.823 5973.23L107.646 5933.29L107.646 5853.1L107.923 5852.94L177.1 5813ZM245.469 5853.73L177.1 5814.27L108.732 5853.73L108.732 5932.64L177.1 5972.1L245.469 5932.64L245.469 5853.73Z" fill="#D0D9DD"/>
<path opacity="0.5" d="M177.1 5972.12L177.377 5972.28L246.555 6012.23L246.555 6092.41L246.277 6092.57L177.1 6132.52L176.823 6132.35L107.646 6092.41L107.646 6012.23L107.923 6012.06L177.1 5972.12ZM245.469 6012.85L177.1 5973.39L108.732 6012.85L108.732 6091.76L177.1 6131.22L245.469 6091.76L245.469 6012.85Z" fill="#D0D9DD"/>
<path opacity="0.5" d="M177.1 6131.22L177.377 6131.38L246.555 6171.33L246.555 6251.51L246.277 6251.67L177.1 6291.61L176.823 6291.45L107.646 6251.51L107.646 6171.33L107.923 6171.16L177.1 6131.22ZM245.469 6171.95L177.1 6132.49L108.732 6171.95L108.732 6250.86L177.1 6290.32L245.469 6250.86L245.469 6171.95Z" fill="#D0D9DD"/>
<path opacity="0.5" d="M177.1 6210.78L177.377 6210.94L246.555 6250.89L246.555 6331.07L246.277 6331.23L177.1 6371.18L176.823 6371.01L107.646 6331.07L107.646 6250.89L107.923 6250.72L177.1 6210.78ZM245.469 6251.51L177.1 6212.05L108.732 6251.51L108.732 6330.42L177.1 6369.88L245.469 6330.42L245.469 6251.51Z" fill="#D0D9DD"/>
<path opacity="0.5" d="M177.1 6449.44L246.555 6489.55L246.555 6569.73L246.277 6569.89L177.1 6609.84L107.646 6569.73L107.646 6489.55L107.923 6489.39L177.1 6449.44ZM245.469 6490.17L177.1 6450.71L108.732 6490.17L108.732 6569.09L177.1 6608.54L245.469 6569.09L245.469 6490.17Z" fill="#D0D9DD"/>
<path opacity="0.5" d="M246 5852.78L246.277 5852.94L315.454 5892.88L315.454 5973.07L315.177 5973.23L246 6013.17L245.723 6013.01L176.546 5973.07L176.546 5892.88L176.823 5892.72L246 5852.78ZM314.369 5893.51L246 5854.05L177.632 5893.51L177.632 5972.42L246 6011.88L314.369 5972.42L314.369 5893.51Z" fill="#D0D9DD"/>
<path opacity="0.5" d="M246 6250.56L246.277 6250.73L315.454 6290.67L315.454 6370.85L315.177 6371.01L246 6410.96L245.723 6410.79L176.546 6370.85L176.546 6290.67L176.823 6290.51L246 6250.56ZM314.368 6291.29L246 6251.83L177.632 6291.29L177.632 6370.21L246 6409.66L314.368 6370.21L314.368 6291.29Z" fill="#D0D9DD"/>
<path opacity="0.5" d="M314.9 5892.56L315.177 5892.72L384.354 5932.67L384.354 6012.85L384.077 6013.01L314.9 6052.95L314.623 6052.79L245.446 6012.85L245.446 5932.67L245.723 5932.5L314.9 5892.56ZM383.268 5933.29L314.9 5893.83L246.531 5933.29L246.531 6012.2L314.9 6051.66L383.268 6012.2L383.268 5933.29Z" fill="#D0D9DD"/>
<path opacity="0.5" d="M383.823 6011.9L384.1 6012.06L453.277 6052.01L453.277 6132.19L453 6132.35L383.823 6172.3L383.546 6172.13L314.369 6132.19L314.369 6052.01L314.646 6051.85L383.823 6011.9ZM452.191 6052.63L383.823 6013.17L315.454 6052.63L315.454 6131.54L383.823 6171L452.191 6131.54L452.191 6052.63Z" fill="#D0D9DD"/>
<path opacity="0.5" d="M590.546 5892.56L590.823 5892.72L660 5932.67L660 6012.85L659.723 6013.01L590.546 6052.95L590.268 6052.79L521.091 6012.85L521.091 5932.67L521.369 5932.5L590.546 5892.56ZM658.891 5933.29L590.523 5893.83L522.154 5933.29L522.154 6012.2L590.523 6051.66L658.891 6012.2L658.891 5933.29Z" fill="#D0D9DD"/>
<path opacity="0.5" d="M-29.6226 5852.78L-29.3454 5852.94L39.8318 5892.88L39.8318 5973.07L39.5545 5973.23L-29.6226 6013.17L-29.8999 6013.01L-99.077 5973.07L-99.077 5892.88L-98.7998 5892.72L-29.6226 5852.78ZM38.7458 5893.51L-29.6226 5854.05L-97.9911 5893.51L-97.9911 5972.42L-29.6226 6011.88L38.7458 5972.42L38.7458 5893.51Z" fill="#D0D9DD"/>
<path opacity="0.5" d="M-29.6226 5932.34L-29.3454 5932.5L39.8318 5972.45L39.8318 6052.63L39.5545 6052.79L-29.6226 6092.73L-29.8999 6092.57L-99.077 6052.63L-99.077 5972.45L-98.7998 5972.28L-29.6226 5932.34ZM38.7458 5973.07L-29.6226 5933.61L-97.9911 5973.07L-97.9911 6051.98L-29.6226 6091.44L38.7458 6051.98L38.7458 5973.07Z" fill="#D0D9DD"/>
<path opacity="0.5" d="M-29.6226 6011.9L-29.3454 6012.06L39.8318 6052.01L39.8318 6132.19L39.5545 6132.35L-29.6226 6172.3L-29.8999 6172.13L-99.077 6132.19L-99.077 6052.01L-98.7998 6051.85L-29.6226 6011.9ZM38.7458 6052.63L-29.6226 6013.17L-97.9911 6052.63L-97.9911 6131.54L-29.6226 6171L38.7458 6131.54L38.7458 6052.63Z" fill="#D0D9DD"/>
<path opacity="0.5" d="M-29.6226 6250.56L-29.3454 6250.73L39.8318 6290.67L39.8318 6370.85L39.5545 6371.01L-29.6226 6410.96L-29.8999 6410.79L-99.077 6370.85L-99.077 6290.67L-98.7998 6290.51L-29.6226 6250.56ZM38.7458 6291.29L-29.6226 6251.83L-97.9911 6291.29L-97.9911 6370.21L-29.6226 6409.66L38.7458 6370.21L38.7458 6291.29Z" fill="#D0D9DD"/>
<path opacity="0.5" d="M-29.6227 6648.35L39.8317 6688.45L39.8317 6768.63L39.5545 6768.8L-29.6227 6808.74L-99.0771 6768.63L-99.0771 6688.45L-98.7998 6688.29L-29.6227 6648.35ZM38.7458 6689.07L-29.6227 6649.62L-97.9911 6689.07L-97.9911 6767.99L-29.6227 6807.45L38.7458 6767.99L38.7458 6689.07Z" fill="#D0D9DD"/>
<path opacity="0.5" d="M-29.6226 6489.22L39.8318 6529.33L39.8318 6609.51L39.5545 6609.67L-29.6226 6649.62L-99.077 6609.51L-99.077 6529.33L-98.7998 6529.17L-29.6226 6489.22ZM38.7458 6529.95L-29.6226 6490.49L-97.9911 6529.95L-97.9911 6608.87L-29.6226 6648.32L38.7458 6608.87L38.7458 6529.95Z" fill="#D0D9DD"/>
<path opacity="0.5" d="M177.1 6290.34L177.377 6290.51L246.555 6330.45L246.555 6410.63L246.277 6410.79L177.1 6450.74L107.646 6410.63L107.646 6330.45L107.923 6330.29L177.1 6290.34ZM245.469 6331.07L177.1 6291.61L108.732 6331.07L108.732 6409.99L177.1 6449.44L245.469 6409.99L245.469 6331.07Z" fill="#D0D9DD"/>
<path d="M383.823 6170.05L384.239 6170.29L453.555 6210.3L453.555 6290.81L453.139 6291.04L383.823 6331.05L383.407 6330.82L314.091 6290.81L314.091 6210.3L314.507 6210.07L383.823 6170.05ZM451.914 6211.27L383.823 6171.97L315.732 6211.27L315.732 6289.86L383.823 6329.15L451.914 6289.86L451.914 6211.27Z" fill="white"/>
<path d="M-29.6226 6409.36L-29.2067 6409.59L40.1091 6449.6L40.1091 6530.11L39.6932 6530.34L-29.6226 6570.36L-99.3542 6530.11L-99.3542 6449.6L-98.9383 6449.37L-29.6226 6409.36ZM38.4686 6450.58L-29.6226 6411.28L-97.7138 6450.58L-97.7138 6529.17L-29.6226 6568.46L38.4686 6529.17L38.4686 6450.58Z" fill="white"/>
<path d="M-29.6226 6170.7L-29.2067 6170.93L40.1091 6210.94L40.1091 6291.45L39.6932 6291.68L-29.6226 6331.7L-30.0385 6331.46L-99.3542 6291.45L-99.3542 6210.94L-98.9383 6210.71L-29.6226 6170.7ZM38.4686 6211.91L-29.6226 6172.62L-97.7138 6211.91L-97.7138 6290.51L-29.6226 6329.8L38.4686 6290.51L38.4686 6211.91Z" fill="white"/>
<path d="M108.177 6250.24L108.593 6250.47L177.909 6290.48L177.909 6370.99L177.493 6371.22L108.177 6411.23L107.761 6411L38.4454 6370.99L38.4454 6290.48L38.8614 6290.25L108.177 6250.24ZM176.268 6291.45L108.177 6252.16L40.0859 6291.45L40.0859 6370.04L108.177 6409.34L176.268 6370.04L176.268 6291.45Z" fill="white"/>
<path d="M108.177 6011.58L108.593 6011.81L177.909 6051.82L177.909 6132.33L177.493 6132.56L108.177 6172.57L107.761 6172.34L38.4455 6132.33L38.4455 6051.82L38.8614 6051.59L108.177 6011.58ZM176.268 6052.79L108.177 6013.5L40.086 6052.79L40.086 6131.38L108.177 6170.68L176.268 6131.38L176.268 6052.79Z" fill="white"/>
<path d="M177.1 5892.24L177.516 5892.47L246.832 5932.48L246.832 6012.99L246.416 6013.22L177.1 6053.23L176.684 6053L107.369 6012.99L107.369 5932.48L107.784 5932.25L177.1 5892.24ZM245.191 5933.45L177.1 5894.16L109.009 5933.45L109.009 6012.04L177.1 6051.34L245.191 6012.04L245.191 5933.45Z" fill="white"/>
<path d="M246 6091.14L246.416 6091.37L315.732 6131.38L315.732 6211.89L315.316 6212.12L246 6252.13L245.584 6251.9L176.268 6211.89L176.268 6131.38L176.684 6131.15L246 6091.14ZM314.091 6132.35L246 6093.06L177.909 6132.35L177.909 6210.94L246 6250.24L314.091 6210.94L314.091 6132.35Z" fill="white"/>
<path d="M246 6329.8L246.416 6330.03L315.732 6370.04L315.732 6450.55L315.316 6450.78L246 6490.79L176.268 6450.55L176.268 6370.04L176.684 6369.81L246 6329.8ZM314.091 6371.01L246 6331.72L177.909 6371.01L177.909 6449.6L246 6488.9L314.091 6449.6L314.091 6371.01Z" fill="white"/>
<path d="M246 6488.9L315.732 6529.14L315.732 6609.65L315.316 6609.88L246 6649.89L176.268 6609.65L176.268 6529.14L176.684 6528.91L246 6488.9ZM314.091 6530.11L246 6490.82L177.909 6530.11L177.909 6608.7L246 6648L314.091 6608.7L314.091 6530.11Z" fill="white"/>
<path d="M314.9 5971.8L315.316 5972.03L384.632 6012.04L384.632 6092.55L384.216 6092.78L314.9 6132.79L314.484 6132.56L245.168 6092.55L245.168 6012.04L245.584 6011.81L314.9 5971.8ZM382.991 6013.01L314.9 5973.72L246.809 6013.01L246.809 6091.6L314.9 6130.9L382.991 6091.6L382.991 6013.01Z" fill="white"/>
<path d="M452.723 5892.24L453.139 5892.47L522.455 5932.48L522.454 6012.99L522.039 6013.22L452.723 6053.23L452.307 6053L382.991 6012.99L382.991 5932.48L383.407 5932.25L452.723 5892.24ZM520.814 5933.45L452.723 5894.16L384.632 5933.45L384.632 6012.04L452.723 6051.34L520.814 6012.04L520.814 5933.45Z" fill="white"/>
<path d="M521.623 5852.48L522.039 5852.71L591.354 5892.72L591.354 5973.23L590.938 5973.46L521.623 6013.47L521.207 6013.24L451.891 5973.23L451.891 5892.72L452.307 5892.49L521.623 5852.48ZM589.714 5893.69L521.623 5854.4L453.531 5893.69L453.531 5972.28L521.623 6011.58L589.714 5972.28L589.714 5893.69Z" fill="white"/>
<path opacity="0.5" d="M182.045 5890.34L182.045 5896.05L177.1 5898.91L172.156 5896.05L172.156 5890.34L177.1 5887.48L182.045 5890.34Z" fill="#D0D9DD"/>
<path opacity="0.5" d="M179.133 5971.5L179.133 5973.85L177.1 5975.03L175.067 5973.85L175.067 5971.5L177.1 5970.34L179.133 5971.5Z" fill="#D0D9DD"/>
<path opacity="0.5" d="M182.253 6128.66L182.253 6134.62L177.1 6137.6L171.948 6134.62L171.948 6128.66L177.1 6125.7L182.253 6128.66Z" fill="#D0D9DD"/>
<path opacity="0.5" d="M182.391 6208.06L182.391 6214.18L177.1 6217.25L171.786 6214.18L171.786 6208.06L177.1 6205.01L182.391 6208.06Z" fill="#D0D9DD"/>
<path opacity="0.5" d="M115.709 6326.41L115.709 6335.09L108.177 6339.43L100.668 6335.09L100.668 6326.41L108.177 6322.06L115.709 6326.41Z" fill="#D0D9DD"/>
<path opacity="0.5" d="M46.8095 6365.75L46.8095 6374.43L39.2772 6378.78L31.768 6374.43L31.768 6365.75L39.2772 6361.4L46.8095 6365.75Z" fill="#D0D9DD"/>
<path opacity="0.5" d="M179.572 6527.62L179.572 6530.48L177.1 6531.92L174.605 6530.48L174.605 6527.62L177.1 6526.16L179.572 6527.62Z" fill="#D0D9DD"/>
<path opacity="0.5" d="M249.489 5851.42L249.489 5855.44L246 5857.47L242.511 5855.44L242.511 5851.42L246 5849.38L249.489 5851.42Z" fill="#D0D9DD"/>
<path opacity="0.5" d="M319.174 5890.74L319.174 5895.66L314.9 5898.13L310.649 5895.66L310.649 5890.74L314.9 5888.29L319.174 5890.74Z" fill="#D0D9DD"/>
<path opacity="0.5" d="M319.059 6288.2L319.059 6293L314.9 6295.4L310.764 6293L310.764 6288.2L314.9 6285.82L319.059 6288.2Z" fill="#D0D9DD"/>
<path opacity="0.5" d="M318.62 6367.94L318.62 6372.22L314.9 6374.36L311.203 6372.22L311.203 6367.94L314.9 6365.82L318.62 6367.94Z" fill="#D0D9DD"/>
<path opacity="0.5" d="M321.947 6524.98L321.947 6533.09L314.9 6537.16L307.876 6533.09L307.876 6524.98L314.9 6520.94L321.947 6524.98Z" fill="#D0D9DD"/>
<path opacity="0.5" d="M247.941 5931.74L247.941 5933.98L246 5935.09L244.059 5933.98L244.059 5931.74L246 5930.61L247.941 5931.74Z" fill="#D0D9DD"/>
<path opacity="0.5" d="M249.651 6248.46L249.651 6252.67L246 6254.77L242.349 6252.67L242.349 6248.46L246 6246.36L249.651 6248.46Z" fill="#D0D9DD"/>
<path opacity="0.5" d="M247.733 6408.42L247.733 6410.42L246 6411.42L244.267 6410.42L244.267 6408.42L246 6407.42L247.733 6408.42Z" fill="#D0D9DD"/>
<path opacity="0.5" d="M250.991 6565.39L250.991 6571.16L246 6574.05L241.009 6571.16L241.009 6565.39L246 6562.5L250.991 6565.39Z" fill="#D0D9DD"/>
<path opacity="0.5" d="M455.588 5971.01L455.588 5974.34L452.723 5976L449.858 5974.34L449.858 5971.01L452.723 5969.37L455.588 5971.01Z" fill="#D0D9DD"/>
<path opacity="0.5" d="M457.436 6049.44L457.436 6054.89L452.723 6057.6L448.009 6054.89L448.009 6049.44L452.723 6046.72L457.436 6049.44Z" fill="#D0D9DD"/>
<path opacity="0.5" d="M457.852 6128.68L457.852 6134.59L452.723 6137.55L447.617 6134.59L447.617 6128.68L452.723 6125.72L457.852 6128.68Z" fill="#D0D9DD"/>
<path opacity="0.5" d="M389.807 5929.41L389.807 5936.32L383.823 5939.76L377.839 5936.32L377.839 5929.41L383.823 5925.94L389.807 5929.41Z" fill="#D0D9DD"/>
<path opacity="0.5" d="M388.721 6009.45L388.721 6015.11L383.823 6017.96L378.901 6015.11L378.901 6009.45L383.823 6006.61L388.721 6009.45Z" fill="#D0D9DD"/>
<path opacity="0.5" d="M387.45 6327.91L387.45 6332.09L383.823 6334.19L380.195 6332.09L380.195 6327.91L383.823 6325.8L387.45 6327.91Z" fill="#D0D9DD"/>
<path opacity="0.5" d="M525.112 5851.42L525.112 5855.44L521.646 5857.45L518.157 5855.44L518.157 5851.42L521.646 5849.41L525.112 5851.42Z" fill="#D0D9DD"/>
<path opacity="0.5" d="M596.83 6048.52L596.83 6055.8L590.546 6059.42L584.261 6055.8L584.261 6048.52L590.546 6044.89L596.83 6048.52Z" fill="#D0D9DD"/>
<path opacity="0.5" d="M528.67 6008.23L528.67 6016.34L521.646 6020.4L514.599 6016.34L514.599 6008.23L521.646 6004.16L528.67 6008.23Z" fill="#D0D9DD"/>
<path opacity="0.5" d="M46.0703 6684.82L46.0703 6692.65L39.2773 6696.58L32.4843 6692.65L32.4843 6684.82L39.2773 6680.92L46.0703 6684.82Z" fill="#D0D9DD"/>
<path d="M182.045 6287.76L182.045 6293.46L177.1 6296.33L172.156 6293.46L172.156 6287.76L177.1 6284.89L182.045 6287.76Z" fill="white"/>
<path d="M44.2218 6208.2L44.2218 6213.9L39.2773 6216.77L34.3328 6213.9L34.3328 6208.2L39.2773 6205.33L44.2218 6208.2Z" fill="white"/>
<path d="M184.609 6445.22L184.609 6453.9L177.1 6458.24L169.568 6453.9L169.568 6445.22L177.1 6440.87L184.609 6445.22Z" fill="white"/>
<path d="M181.074 6606.23L181.074 6610.83L177.1 6613.12L173.126 6610.83L173.126 6606.23L177.1 6603.92L181.074 6606.23Z" fill="white"/>
<path d="M317.811 6209.44L317.811 6212.79L314.9 6214.48L312.012 6212.79L312.012 6209.44L314.9 6207.78L317.811 6209.44Z" fill="white"/>
<path d="M113.214 5850.52L113.214 5856.32L108.177 5859.23L103.163 5856.32L103.163 5850.52L108.177 5847.63L113.214 5850.52Z" fill="white"/>
<path d="M44.2911 5890.3L44.2911 5896.1L39.2773 5899.01L34.2634 5896.1L34.2634 5890.3L39.2773 5887.41L44.2911 5890.3Z" fill="white"/>
<path d="M317.811 5971.01L317.811 5974.36L314.9 5976.03L312.012 5974.36L312.012 5971.01L314.9 5969.33L317.811 5971.01Z" fill="white"/>
<path d="M318.712 6049.97L318.712 6054.34L314.9 6056.53L311.111 6054.34L311.111 6049.97L314.9 6047.78L318.712 6049.97Z" fill="white"/>
<path d="M319.937 6446.67L319.937 6452.47L314.9 6455.36L309.886 6452.47L309.886 6446.67L314.9 6443.76L319.937 6446.67Z" fill="white"/>
<path d="M252.978 6008.25L252.978 6016.32L246 6020.33L239.022 6016.32L239.022 6008.25L246 6004.23L252.978 6008.25Z" fill="white"/>
<path d="M251.199 6088.72L251.199 6094.7L246 6097.7L240.824 6094.7L240.824 6088.72L246 6085.71L251.199 6088.72Z" fill="white"/>
<path d="M251.638 6167.88L251.638 6174.4L246 6177.63L240.385 6174.4L240.385 6167.88L246 6164.65L251.638 6167.88Z" fill="white"/>
<path d="M249.396 6486.89L249.396 6490.82L246 6492.78L242.604 6490.82L242.604 6486.89L246 6484.93L249.396 6486.89Z" fill="white"/>
<path d="M249.859 6645.48L249.859 6649.94L246 6652.18L242.141 6649.94L242.141 6645.48L246 6643.24L249.859 6645.48Z" fill="white"/>
<path d="M457.667 5890.34L457.667 5896.05L452.723 5898.91L447.778 5896.05L447.778 5890.34L452.723 5887.48L457.667 5890.34Z" fill="white"/>
<path d="M457.459 6287.87L457.459 6293.32L452.723 6296.07L447.986 6293.32L447.986 6287.87L452.723 6285.15L457.459 6287.87Z" fill="white"/>
<path d="M389.576 6088.39L389.576 6095.04L383.823 6098.35L378.07 6095.04L378.07 6088.39L383.823 6085.07L389.576 6088.39Z" fill="white"/>
<path d="M386.503 6169.59L386.503 6172.69L383.823 6174.24L381.12 6172.69L381.12 6169.59L383.823 6168.05L386.503 6169.59Z" fill="white"/>
<path d="M594.243 5970.55L594.243 5974.83L590.546 5976.95L586.849 5974.83L586.849 5970.55L590.546 5968.4L594.243 5970.55Z" fill="white"/>
</g>
<g filter="url(#filter3_f_718_14)">
<circle cx="91.5" cy="5788.5" r="468.5" fill="#1B1B2A"/>
</g>
<g opacity="0.3" filter="url(#filter4_f_718_14)">
<circle cx="-313.5" cy="2314.5" r="543.5" fill="#B95DFE"/>
</g>
<g opacity="0.5" filter="url(#filter5_f_718_14)">
<circle cx="167.5" cy="104.5" r="467.5" fill="#8FE600"/>
</g>
<g opacity="0.7" filter="url(#filter6_f_718_14)">
<circle cx="1861.5" cy="1016.5" r="543.5" fill="#B95DFE"/>
</g>
<g filter="url(#filter7_f_718_14)">
<circle cx="614.5" cy="-3.5" r="407.5" fill="#1B1B2A"/>
</g>
<g filter="url(#filter8_f_718_14)">
<circle cx="1967.5" cy="1616.5" r="615.5" fill="#1B1B2A"/>
</g>
<g opacity="0.3" filter="url(#filter9_f_718_14)">
<circle cx="1917.5" cy="8442.5" r="571.5" fill="#8FE600"/>
</g>
<g filter="url(#filter10_f_718_14)">
<circle cx="1843.5" cy="9071.5" r="615.5" fill="#1B1B2A"/>
</g>
<g style="mix-blend-mode:overlay" clip-path="url(#clip3_718_14)">
<path opacity="0.5" d="M1764.49 1455.53L1827.18 1491.75L1827.18 1564.19L1826.93 1564.33L1764.49 1600.41L1701.8 1564.19L1701.8 1491.75L1702.05 1491.61L1764.49 1455.53ZM1826.2 1492.32L1764.49 1456.68L1702.78 1492.32L1702.78 1563.6L1764.49 1599.24L1826.2 1563.6L1826.2 1492.32Z" fill="#D0D9DD"/>
<path opacity="0.5" d="M1951.09 1635.2L2013.79 1671.43L2013.79 1743.86L2013.54 1744.01L1951.09 1780.09L1888.4 1743.86L1888.4 1671.43L1888.65 1671.28L1951.09 1635.2ZM2012.81 1671.99L1951.09 1636.35L1889.38 1671.99L1889.38 1743.28L1951.09 1778.92L2012.81 1743.28L2012.81 1671.99Z" fill="#D0D9DD"/>
<path opacity="0.5" d="M1951.09 1419.59L2013.79 1455.82L2013.79 1528.25L2013.54 1528.4L1951.09 1564.48L1888.4 1528.25L1888.4 1455.82L1888.65 1455.67L1951.09 1419.59ZM2012.81 1456.38L1951.09 1420.74L1889.38 1456.38L1889.38 1527.67L1951.09 1563.31L2012.81 1527.67L2012.81 1456.38Z" fill="#D0D9DD"/>
<path opacity="0.5" d="M1951.09 1132.16L1951.34 1132.3L2013.79 1168.38L2013.79 1240.82L2013.54 1240.96L1951.09 1277.04L1888.4 1240.82L1888.4 1168.38L1888.65 1168.24L1951.09 1132.16ZM2012.81 1168.95L1951.09 1133.31L1889.38 1168.95L1889.38 1240.23L1951.09 1275.88L2012.81 1240.23L2012.81 1168.95Z" fill="#D0D9DD"/>
<path opacity="0.5" d="M1888.9 1671.13L1951.59 1707.36L1951.59 1779.77L1951.34 1779.92L1888.9 1816L1826.2 1779.77L1826.2 1707.34L1826.45 1707.19L1888.9 1671.11L1888.9 1671.13ZM1950.61 1707.93L1888.9 1672.28L1827.18 1707.93L1827.18 1779.21L1888.9 1814.85L1950.61 1779.21L1950.61 1707.93Z" fill="#D0D9DD"/>
<path opacity="0.5" d="M1888.9 1527.4L1951.59 1563.62L1951.59 1636.06L1951.34 1636.2L1888.9 1672.28L1826.2 1636.06L1826.2 1563.62L1826.45 1563.48L1888.9 1527.4ZM1950.61 1564.19L1888.9 1528.54L1827.18 1564.19L1827.18 1635.47L1888.9 1671.11L1950.61 1635.47L1950.61 1564.19Z" fill="#D0D9DD"/>
<path opacity="0.5" d="M1888.9 1383.68L1951.59 1419.91L1951.59 1492.34L1951.34 1492.48L1888.9 1528.57L1826.2 1492.34L1826.2 1419.91L1826.45 1419.76L1888.9 1383.68ZM1950.61 1420.47L1888.9 1384.83L1827.18 1420.47L1827.18 1491.75L1888.9 1527.4L1950.61 1491.75L1950.61 1420.47Z" fill="#D0D9DD"/>
<path opacity="0.5" d="M1888.9 1311.81L1951.59 1348.04L1951.59 1420.47L1951.34 1420.62L1888.9 1456.7L1826.2 1420.47L1826.2 1348.04L1826.45 1347.89L1888.9 1311.81ZM1950.61 1348.6L1888.9 1312.96L1827.18 1348.6L1827.18 1419.88L1888.9 1455.53L1950.61 1419.89L1950.61 1348.6Z" fill="#D0D9DD"/>
<path opacity="0.5" d="M1764.49 1311.81L1827.18 1348.04L1827.18 1420.47L1826.93 1420.62L1764.49 1456.7L1701.8 1420.47L1701.8 1348.04L1702.05 1347.89L1764.49 1311.81ZM1826.2 1348.6L1764.49 1312.96L1702.78 1348.6L1702.78 1419.88L1764.49 1455.53L1826.2 1419.89L1826.2 1348.6Z" fill="#D0D9DD"/>
<path opacity="0.5" d="M1888.9 1096.22L1889.15 1096.37L1951.59 1132.45L1951.59 1204.88L1951.34 1205.03L1888.9 1241.11L1826.2 1204.88L1826.2 1132.45L1826.45 1132.3L1888.9 1096.22ZM1950.61 1133.01L1888.9 1097.37L1827.18 1133.01L1827.18 1204.3L1888.9 1239.94L1950.61 1204.3L1950.61 1133.01Z" fill="#D0D9DD"/>
<path opacity="0.5" d="M1826.7 1635.2L1889.4 1671.43L1889.4 1743.86L1889.15 1744.01L1826.7 1780.09L1764.01 1743.86L1764.01 1671.43L1764.26 1671.28L1826.7 1635.2ZM1888.42 1671.99L1826.7 1636.35L1764.99 1671.99L1764.99 1743.28L1826.7 1778.92L1888.42 1743.28L1888.42 1671.99Z" fill="#D0D9DD"/>
<path opacity="0.5" d="M1826.7 1275.88L1889.4 1312.1L1889.4 1384.53L1889.15 1384.68L1826.7 1420.76L1764.01 1384.53L1764.01 1312.1L1764.26 1311.96L1826.7 1275.88ZM1888.42 1312.67L1826.7 1277.02L1764.99 1312.67L1764.99 1383.95L1826.7 1419.59L1888.42 1383.95L1888.42 1312.67Z" fill="#D0D9DD"/>
<path opacity="0.5" d="M1764.49 1599.27L1827.18 1635.49L1827.18 1707.92L1826.93 1708.07L1764.49 1744.15L1701.8 1707.92L1701.8 1635.49L1702.05 1635.35L1764.49 1599.27ZM1826.2 1636.06L1764.49 1600.41L1702.78 1636.06L1702.78 1707.34L1764.49 1742.98L1826.2 1707.34L1826.2 1636.06Z" fill="#D0D9DD"/>
<path opacity="0.5" d="M1702.3 1491.46L1764.99 1527.69L1764.99 1600.12L1764.74 1600.27L1702.3 1636.35L1639.6 1600.12L1639.6 1527.69L1639.85 1527.54L1702.3 1491.46ZM1764.01 1528.25L1702.3 1492.61L1640.58 1528.25L1640.58 1599.54L1702.3 1635.18L1764.01 1599.54L1764.01 1528.25Z" fill="#D0D9DD"/>
<path opacity="0.5" d="M1515.69 1599.27L1578.39 1635.49L1578.39 1707.92L1578.14 1708.07L1515.69 1744.15L1453 1707.92L1453 1635.49L1453.25 1635.35L1515.69 1599.27ZM1577.41 1636.06L1515.69 1600.41L1453.98 1636.06L1453.98 1707.34L1515.69 1742.98L1577.41 1707.34L1577.41 1636.06Z" fill="#D0D9DD"/>
<path opacity="0.5" d="M1951.09 916.551L1951.34 916.697L2013.79 952.777L2013.79 1025.21L2013.54 1025.36L1951.09 1061.44L1950.84 1061.29L1888.4 1025.21L1888.4 952.777L1888.65 952.631L1951.09 916.551ZM2012.81 953.341L1951.09 917.699L1889.38 953.341L1889.38 1024.63L1951.09 1060.27L2012.81 1024.63L2012.81 953.341Z" fill="#D0D9DD"/>
<path opacity="0.5" d="M1888.9 1023.96L1889.15 1024.1L1951.59 1060.18L1951.59 1132.62L1951.34 1132.76L1888.9 1168.84L1888.65 1168.7L1826.2 1132.62L1826.2 1060.18L1826.45 1060.04L1888.9 1023.96ZM1950.61 1060.75L1888.9 1025.11L1827.18 1060.75L1827.18 1132.03L1888.9 1167.68L1950.61 1132.03L1950.61 1060.75Z" fill="#D0D9DD"/>
<path opacity="0.5" d="M1888.9 1239.94L1951.59 1276.17L1951.59 1348.6L1951.34 1348.75L1888.9 1384.83L1826.2 1348.6L1826.2 1276.17L1826.45 1276.02L1888.9 1239.94ZM1950.61 1276.73L1888.9 1241.09L1827.18 1276.73L1827.18 1348.02L1888.9 1383.66L1950.61 1348.02L1950.61 1276.73Z" fill="#D0D9DD"/>
<path d="M1702.3 1348.02L1765.24 1384.37L1765.24 1457.09L1764.86 1457.3L1702.3 1493.44L1639.35 1457.09L1639.35 1384.37L1639.73 1384.16L1702.3 1348.02ZM1763.76 1385.24L1702.3 1349.75L1640.83 1385.24L1640.83 1456.24L1702.3 1491.73L1763.76 1456.24L1763.76 1385.24Z" fill="white"/>
<path d="M1951.09 1275.58L2014.04 1311.94L2014.04 1384.66L2013.66 1384.87L1951.09 1421.01L1888.15 1384.66L1888.15 1311.94L1888.52 1311.73L1951.09 1275.58ZM2012.55 1312.81L1951.09 1277.32L1889.63 1312.81L1889.63 1383.8L1951.09 1419.3L2012.55 1383.8L2012.55 1312.81Z" fill="white"/>
<path d="M1951.09 988.107L1951.47 988.316L2014.04 1024.46L2014.04 1097.18L2013.66 1097.39L1951.09 1133.54L1950.72 1133.33L1888.15 1097.18L1888.15 1024.46L1888.52 1024.25L1951.09 988.107ZM2012.56 1025.34L1951.09 989.839L1889.63 1025.34L1889.63 1096.33L1951.09 1131.82L2012.56 1096.33L2012.56 1025.34Z" fill="white"/>
<path d="M1951.09 1491.17L2014.04 1527.52L2014.04 1600.25L2013.66 1600.46L1951.09 1636.6L1888.15 1600.25L1888.15 1527.52L1888.52 1527.31L1951.09 1491.17ZM2012.55 1528.4L1951.09 1492.9L1889.63 1528.4L1889.63 1599.39L1951.09 1634.89L2012.55 1599.39L2012.55 1528.4Z" fill="white"/>
<path d="M1888.9 1598.97L1951.84 1635.33L1951.84 1708.05L1951.47 1708.26L1888.9 1744.4L1825.95 1708.05L1825.95 1635.33L1826.33 1635.12L1888.9 1598.97ZM1950.36 1636.2L1888.9 1600.71L1827.43 1636.2L1827.43 1707.19L1888.9 1742.69L1950.36 1707.19L1950.36 1636.2Z" fill="white"/>
<path d="M1826.7 1419.32L1889.65 1455.67L1889.65 1528.4L1889.27 1528.61L1826.7 1564.75L1763.76 1528.4L1763.76 1455.67L1764.14 1455.46L1826.7 1419.32ZM1888.17 1456.55L1826.7 1421.05L1765.24 1456.55L1765.24 1527.54L1826.7 1563.04L1888.17 1527.54L1888.17 1456.55Z" fill="white"/>
<path d="M1826.7 1203.74L1827.08 1203.94L1889.65 1240.09L1889.65 1312.81L1889.27 1313.02L1826.7 1349.16L1763.76 1312.81L1763.76 1240.09L1764.14 1239.88L1826.7 1203.74ZM1888.17 1240.96L1826.7 1205.47L1765.24 1240.96L1765.24 1311.96L1826.7 1347.45L1888.17 1311.96L1888.17 1240.96Z" fill="white"/>
<path d="M1826.7 1060L1827.08 1060.21L1889.65 1096.35L1889.65 1169.07L1889.27 1169.28L1826.7 1205.43L1826.33 1205.22L1763.76 1169.07L1763.76 1096.35L1764.14 1096.14L1826.7 1060ZM1888.17 1097.23L1826.7 1061.73L1765.24 1097.23L1765.24 1168.22L1826.7 1203.71L1888.17 1168.22L1888.17 1097.23Z" fill="white"/>
<path d="M1764.49 1527.1L1827.43 1563.46L1827.43 1636.18L1827.06 1636.39L1764.49 1672.53L1701.55 1636.18L1701.55 1563.46L1701.92 1563.25L1764.49 1527.1ZM1825.95 1564.33L1764.49 1528.84L1703.03 1564.33L1703.03 1635.33L1764.49 1670.82L1825.95 1635.33L1825.95 1564.33Z" fill="white"/>
<path d="M1640.1 1598.97L1703.05 1635.33L1703.05 1708.05L1702.67 1708.26L1640.1 1744.4L1577.16 1708.05L1577.16 1635.33L1577.53 1635.12L1640.1 1598.97ZM1701.57 1636.2L1640.1 1600.71L1578.64 1636.2L1578.64 1707.19L1640.1 1742.69L1701.57 1707.19L1701.57 1636.2Z" fill="white"/>
<path d="M1577.89 1634.91L1640.83 1671.26L1640.83 1743.98L1640.46 1744.19L1577.89 1780.34L1514.94 1743.98L1514.94 1671.26L1515.32 1671.05L1577.89 1634.91ZM1639.35 1672.14L1577.89 1636.64L1516.42 1672.14L1516.42 1743.13L1577.89 1778.63L1639.35 1743.13L1639.35 1672.14Z" fill="white"/>
<path opacity="0.5" d="M1884.43 1746.13L1884.43 1740.98L1888.9 1738.41L1893.36 1740.98L1893.36 1746.13L1888.9 1748.72L1884.43 1746.13Z" fill="#D0D9DD"/>
<path opacity="0.5" d="M1887.06 1672.83L1887.06 1670.72L1888.9 1669.65L1890.73 1670.72L1890.73 1672.83L1888.9 1673.89L1887.06 1672.83Z" fill="#D0D9DD"/>
<path opacity="0.5" d="M1884.25 1530.86L1884.25 1525.48L1888.9 1522.81L1893.55 1525.48L1893.55 1530.86L1888.9 1533.55L1884.25 1530.86Z" fill="#D0D9DD"/>
<path opacity="0.5" d="M1884.1 1459.14L1884.1 1453.61L1888.9 1450.85L1893.69 1453.61L1893.69 1459.14L1888.9 1461.91L1884.1 1459.14Z" fill="#D0D9DD"/>
<path opacity="0.5" d="M1823.53 1781.32L1823.53 1777.67L1826.7 1775.85L1829.85 1777.67L1829.85 1781.32L1826.7 1783.13L1823.53 1781.32Z" fill="#D0D9DD"/>
<path opacity="0.5" d="M1760.65 1745.78L1760.65 1741.33L1764.49 1739.12L1768.35 1741.33L1768.35 1745.78L1764.49 1748.01L1760.65 1745.78Z" fill="#D0D9DD"/>
<path opacity="0.5" d="M1760.76 1386.75L1760.76 1382.43L1764.49 1380.26L1768.24 1382.43L1768.24 1386.75L1764.49 1388.92L1760.76 1386.75Z" fill="#D0D9DD"/>
<path opacity="0.5" d="M1761.15 1314.71L1761.15 1310.85L1764.49 1308.93L1767.85 1310.85L1767.85 1314.71L1764.49 1316.65L1761.15 1314.71Z" fill="#D0D9DD"/>
<path opacity="0.5" d="M1758.15 1172.85L1758.15 1165.53L1764.49 1161.87L1770.85 1165.53L1770.85 1172.85L1764.49 1176.52L1758.15 1172.85Z" fill="#D0D9DD"/>
<path opacity="0.5" d="M1824.95 1708.76L1824.95 1706.74L1826.7 1705.71L1828.46 1706.74L1828.46 1708.76L1826.7 1709.76L1824.95 1708.76Z" fill="#D0D9DD"/>
<path opacity="0.5" d="M1823.41 1422.64L1823.41 1418.84L1826.7 1416.94L1830 1418.84L1830 1422.64L1826.7 1424.56L1823.41 1422.64Z" fill="#D0D9DD"/>
<path opacity="0.5" d="M1825.14 1278.15L1825.14 1276.33L1826.7 1275.44L1828.27 1276.33L1828.27 1278.15L1826.7 1279.07L1825.14 1278.15Z" fill="#D0D9DD"/>
<path opacity="0.5" d="M1822.18 1136.35L1822.18 1131.14L1826.7 1128.53L1831.21 1131.14L1831.21 1136.35L1826.7 1138.96L1822.18 1136.35Z" fill="#D0D9DD"/>
<path opacity="0.5" d="M1637.52 1673.26L1637.52 1670.28L1640.1 1668.78L1642.69 1670.28L1642.69 1673.26L1640.1 1674.77L1637.52 1673.26Z" fill="#D0D9DD"/>
<path opacity="0.5" d="M1635.85 1602.44L1635.85 1597.51L1640.1 1595.05L1644.36 1597.51L1644.36 1602.44L1640.1 1604.9L1635.85 1602.44Z" fill="#D0D9DD"/>
<path opacity="0.5" d="M1635.47 1530.84L1635.47 1525.5L1640.1 1522.85L1644.71 1525.5L1644.71 1530.84L1640.1 1533.51L1635.47 1530.84Z" fill="#D0D9DD"/>
<path opacity="0.5" d="M1696.89 1710.87L1696.89 1704.63L1702.3 1701.5L1707.7 1704.63L1707.7 1710.87L1702.3 1713.98L1696.89 1710.87Z" fill="#D0D9DD"/>
<path opacity="0.5" d="M1697.87 1638.56L1697.87 1633.43L1702.3 1630.88L1706.72 1633.43L1706.72 1638.56L1702.3 1641.11L1697.87 1638.56Z" fill="#D0D9DD"/>
<path opacity="0.5" d="M1699.02 1350.9L1699.02 1347.1L1702.3 1345.22L1705.57 1347.1L1705.57 1350.9L1702.3 1352.77L1699.02 1350.9Z" fill="#D0D9DD"/>
<path opacity="0.5" d="M1574.74 1781.32L1574.74 1777.67L1577.89 1775.85L1581.04 1777.67L1581.04 1781.32L1577.89 1783.13L1574.74 1781.32Z" fill="#D0D9DD"/>
<path opacity="0.5" d="M1510.02 1603.25L1510.02 1596.7L1515.69 1593.4L1521.37 1596.7L1521.37 1603.25L1515.69 1606.53L1510.02 1603.25Z" fill="#D0D9DD"/>
<path opacity="0.5" d="M1571.55 1639.67L1571.55 1632.32L1577.89 1628.65L1584.25 1632.32L1584.25 1639.67L1577.89 1643.34L1571.55 1639.67Z" fill="#D0D9DD"/>
<path d="M1886.67 1170.49L1886.67 1167.9L1888.9 1166.59L1891.15 1167.9L1891.15 1170.49L1888.9 1171.79L1886.67 1170.49Z" fill="white"/>
<path d="M1884.43 1387.16L1884.43 1382.01L1888.9 1379.42L1893.36 1382.01L1893.36 1387.16L1888.9 1389.75L1884.43 1387.16Z" fill="white"/>
<path d="M1822.24 1351.23L1822.24 1346.08L1826.7 1343.49L1831.17 1346.08L1831.17 1351.23L1826.7 1353.82L1822.24 1351.23Z" fill="white"/>
<path d="M1882.12 1244.91L1882.12 1237.06L1888.9 1233.14L1895.7 1237.06L1895.7 1244.91L1888.9 1248.83L1882.12 1244.91Z" fill="white"/>
<path d="M1885.31 1099.48L1885.31 1095.33L1888.9 1093.24L1892.48 1095.33L1892.48 1099.48L1888.9 1101.54L1885.31 1099.48Z" fill="white"/>
<path d="M1761.88 1457.89L1761.88 1454.86L1764.49 1453.36L1767.12 1454.86L1767.12 1457.89L1764.49 1459.41L1761.88 1457.89Z" fill="white"/>
<path d="M1761.88 1673.28L1761.88 1670.26L1764.49 1668.76L1767.12 1670.26L1767.12 1673.28L1764.49 1674.79L1761.88 1673.28Z" fill="white"/>
<path d="M1761.07 1601.96L1761.07 1597.99L1764.49 1596.01L1767.93 1597.99L1767.93 1601.96L1764.49 1603.92L1761.07 1601.96Z" fill="white"/>
<path d="M1759.96 1243.61L1759.96 1238.38L1764.49 1235.75L1769.04 1238.38L1769.04 1243.61L1764.49 1246.22L1759.96 1243.61Z" fill="white"/>
<path d="M1820.41 1639.62L1820.41 1632.36L1826.7 1628.71L1833 1632.36L1833 1639.62L1826.7 1643.28L1820.41 1639.62Z" fill="white"/>
<path d="M1822.01 1566.94L1822.01 1561.54L1826.7 1558.82L1831.38 1561.54L1831.38 1566.94L1826.7 1569.65L1822.01 1566.94Z" fill="white"/>
<path d="M1821.62 1495.43L1821.62 1489.56L1826.7 1486.62L1831.77 1489.56L1831.77 1495.43L1826.7 1498.37L1821.62 1495.43Z" fill="white"/>
<path d="M1823.62 1207.28L1823.62 1203.71L1826.7 1201.94L1829.77 1203.71L1829.77 1207.28L1826.7 1209.06L1823.62 1207.28Z" fill="white"/>
<path d="M1823.2 1064.02L1823.2 1059.98L1826.7 1057.97L1830.19 1059.98L1830.19 1064.02L1826.7 1066.03L1823.2 1064.02Z" fill="white"/>
<path d="M1635.64 1746.13L1635.64 1740.98L1640.1 1738.41L1644.57 1740.98L1644.57 1746.13L1640.1 1748.72L1635.64 1746.13Z" fill="white"/>
<path d="M1637.87 1457.66L1637.87 1455.09L1640.1 1453.82L1642.31 1455.09L1642.31 1457.66L1640.1 1458.93L1637.87 1457.66Z" fill="white"/>
<path d="M1697.1 1567.25L1697.1 1561.24L1702.3 1558.24L1707.49 1561.24L1707.49 1567.25L1702.3 1570.24L1697.1 1567.25Z" fill="white"/>
<path d="M1699.88 1493.9L1699.88 1491.09L1702.3 1489.69L1704.72 1491.09L1704.72 1493.9L1702.3 1495.3L1699.88 1493.9Z" fill="white"/>
<path d="M1512.36 1673.7L1512.36 1669.84L1515.69 1667.92L1519.03 1669.84L1519.03 1673.7L1515.69 1675.62L1512.36 1673.7Z" fill="white"/>
</g>
<g style="mix-blend-mode:overlay" clip-path="url(#clip4_718_14)">
<g opacity="0.5">
<path d="M-5.44548 376.445L64.0089 416.549L64.0089 496.734L63.7317 496.896L-5.4455 536.838L-74.8999 496.734L-74.8999 416.549L-74.6226 416.388L-5.44548 376.445ZM62.923 417.173L-5.44548 377.716L-73.814 417.173L-73.814 496.088L-5.4455 535.545L62.923 496.088L62.923 417.173Z" fill="#D0D9DD"/>
</g>
<path opacity="0.5" d="M63.4544 -140.656L63.7317 -140.494L132.909 -100.552L132.909 -20.3671L132.632 -20.2054L63.4544 19.7368L-6 -20.3672L-5.99999 -100.552L-5.72274 -100.714L63.4544 -140.656ZM131.823 -99.9283L63.4544 -139.386L-4.91411 -99.9283L-4.91412 -21.014L63.4544 18.4431L131.823 -21.014L131.823 -99.9283Z" fill="#D0D9DD"/>
<path opacity="0.5" d="M63.4544 98.0045L132.909 138.109L132.909 218.293L132.632 218.455L63.4544 258.397L-6.00003 218.293L-6.00002 138.109L-5.72277 137.947L63.4544 98.0045ZM131.823 138.732L63.4544 99.2751L-4.91414 138.732L-4.91415 217.647L63.4544 257.104L131.823 217.647L131.823 138.732Z" fill="#D0D9DD"/>
<path opacity="0.5" d="M270.177 -21.3373L270.454 -21.1755L339.632 18.7668L339.632 98.9517L339.354 99.1134L270.177 139.056L200.723 98.9516L200.723 18.7668L201 18.605L270.177 -21.3373ZM338.546 19.3905L270.177 -20.0667L201.809 19.3905L201.809 98.3048L270.177 137.762L338.546 98.3048L338.546 19.3905Z" fill="#D0D9DD"/>
<path opacity="0.5" d="M339.1 18.4435L408.555 58.5475L408.555 138.732L408.277 138.894L339.1 178.836L269.646 138.732L269.646 58.5475L269.923 58.3858L339.1 18.4435ZM407.469 59.1712L339.1 19.7141L270.732 59.1712L270.732 138.086L339.1 177.543L407.469 138.086L407.469 59.1712Z" fill="#D0D9DD"/>
<path opacity="0.5" d="M132.377 217.346L201.832 257.45L201.832 337.635L201.555 337.797L132.377 377.739L62.9229 337.635L62.923 257.45L63.2002 257.289L132.377 217.346ZM200.746 258.074L132.377 218.617L64.0089 258.074L64.0089 336.988L132.377 376.446L200.746 336.988L200.746 258.074Z" fill="#D0D9DD"/>
<path opacity="0.5" d="M132.377 58.2238L201.832 98.3278L201.832 178.513L201.555 178.674L132.377 218.617L62.9229 178.513L62.923 98.3278L63.2002 98.1661L132.377 58.2238ZM200.746 98.9515L132.377 59.4943L64.0089 98.9515L64.0089 177.866L132.377 217.323L200.746 177.866L200.746 98.9515Z" fill="#D0D9DD"/>
<path opacity="0.5" d="M339.1 -140.656L339.377 -140.494L408.555 -100.552L408.555 -20.3671L408.277 -20.2054L339.1 19.7368L269.646 -20.3672L269.646 -100.552L269.923 -100.714L339.1 -140.656ZM407.469 -99.9283L339.1 -139.386L270.732 -99.9283L270.732 -21.014L339.1 18.4431L407.469 -21.014L407.469 -99.9283Z" fill="#D0D9DD"/>
<path d="M132.377 -21.6376L132.793 -21.4066L202.109 18.605L202.109 99.1134L201.693 99.3443L132.377 139.356L62.6457 99.1133L62.6457 18.605L63.0616 18.374L132.377 -21.6376ZM200.469 19.5753L132.377 -19.7202L64.2862 19.5753L64.2862 98.1662L132.377 137.462L200.469 98.1662L200.469 19.5753Z" fill="white"/>
<path d="M-5.44544 -101.199L-5.02957 -100.968L64.2862 -60.956L64.2862 19.5523L63.8703 19.7833L-5.44546 59.7949L-75.1771 19.5523L-75.1771 -60.956L-74.7612 -61.1871L-5.44544 -101.199ZM62.6458 -59.9857L-5.44544 -99.2812L-73.5367 -59.9857L-73.5367 18.6051L-5.44546 57.9006L62.6457 18.6052L62.6458 -59.9857Z" fill="white"/>
<path d="M-5.4455 296.584L64.2861 336.827L64.2861 417.335L63.8703 417.566L-5.44552 457.578L-75.1772 417.335L-75.1772 336.827L-74.7613 336.596L-5.4455 296.584ZM62.6457 337.797L-5.4455 298.502L-73.5367 337.797L-73.5367 416.388L-5.44552 455.683L62.6457 416.388L62.6457 337.797Z" fill="white"/>
<path d="M63.4544 -61.4184L63.8703 -61.1874L133.186 -21.1757L133.186 59.3326L132.77 59.5636L63.4544 99.5752L-6.27732 59.3326L-6.27732 -21.1758L-5.86136 -21.4068L63.4544 -61.4184ZM131.546 -20.2055L63.4544 -59.5009L-4.6368 -20.2055L-4.63681 58.3854L63.4544 97.6809L131.546 58.3854L131.546 -20.2055Z" fill="white"/>
<path d="M63.4544 177.242L133.186 217.485L133.186 297.993L132.77 298.224L63.4544 338.236L-6.27732 297.993L-6.27732 217.485L-5.86136 217.254L63.4544 177.242ZM131.546 218.455L63.4544 179.16L-4.6368 218.455L-4.63681 297.046L63.4544 336.342L131.546 297.046L131.546 218.455Z" fill="white"/>
<path d="M408 -101.199L408.416 -100.968L477.732 -60.956L477.732 19.5523L477.316 19.7833L408 59.7949L338.268 19.5523L338.268 -60.956L338.684 -61.1871L408 -101.199ZM476.091 -59.9857L408 -99.2812L339.909 -59.9857L339.909 18.6051L408 57.9006L476.091 18.6052L476.091 -59.9857Z" fill="white"/>
<path d="M408 57.9005L477.732 98.1431L477.732 178.651L477.316 178.882L408 218.894L338.268 178.651L338.268 98.1431L338.684 97.9121L408 57.9005ZM476.091 99.1134L408 59.8179L339.909 99.1134L339.909 177.704L408 217L476.091 177.704L476.091 99.1134Z" fill="white"/>
<path opacity="0.5" d="M65.3952 96.9415L65.3952 99.1592L63.4544 100.268L61.5366 99.1592L61.5366 96.9415L63.4544 95.8095L65.3952 96.9415Z" fill="#D0D9DD"/>
<path opacity="0.5" d="M65.0487 176.595L65.0487 178.443L63.4544 179.367L61.8602 178.443L61.8602 176.595L63.4544 175.671L65.0487 176.595Z" fill="#D0D9DD"/>
<path opacity="0.5" d="M68.1678 254.285L68.1678 259.737L63.4544 262.463L58.7409 259.737L58.7409 254.285L63.4544 251.559L68.1678 254.285Z" fill="#D0D9DD"/>
<path opacity="0.5" d="M68.2603 333.708L68.2603 339.252L63.4544 342.024L58.6716 339.252L58.6716 333.708L63.4544 330.936L68.2603 333.708Z" fill="#D0D9DD"/>
<path opacity="0.5" d="M0.400147 532.819L0.400147 539.564L-5.44548 542.937L-11.2911 539.564L-11.2911 532.819L-5.44548 529.446L0.400147 532.819Z" fill="#D0D9DD"/>
<path opacity="0.5" d="M341.572 96.6182L341.572 99.4827L339.1 100.915L336.605 99.4827L336.605 96.6182L339.1 95.1628L341.572 96.6182Z" fill="#D0D9DD"/>
<path opacity="0.5" d="M483.947 93.9848L483.947 102.093L476.9 106.159L469.876 102.093L469.876 93.9848L476.9 89.942L483.947 93.9848Z" fill="#D0D9DD"/>
<path opacity="0.5" d="M412.991 134.389L412.991 140.165L408 143.052L403.009 140.165L403.009 134.389L408 131.502L412.991 134.389Z" fill="#D0D9DD"/>
<path opacity="0.5" d="M208.07 253.823L208.07 261.654L201.277 265.582L194.484 261.654L194.484 253.823L201.277 249.919L208.07 253.823Z" fill="#D0D9DD"/>
<path d="M346.609 14.2155L346.609 22.9015L339.1 27.2446L331.568 22.9015L331.568 14.2154L339.1 9.87238L346.609 14.2155Z" fill="white"/>
<path d="M343.074 175.232L343.074 179.829L339.1 182.116L335.126 179.829L335.126 175.232L339.1 172.922L343.074 175.232Z" fill="white"/>
<path d="M66.2501 414.354L66.2501 417.566L63.4544 419.183L60.6817 417.566L60.6817 414.354L63.4544 412.76L66.2501 414.354Z" fill="white"/>
<path d="M69.3 492.068L69.3 498.813L63.4544 502.186L57.6319 498.813L57.6319 492.068L63.4544 488.718L69.3 492.068Z" fill="white"/>
<path d="M135.959 55.775L135.959 59.9101L132.377 61.9893L128.796 59.9101L128.796 55.775L132.377 53.719L135.959 55.775Z" fill="white"/>
<path d="M134.757 135.914L134.757 138.663L132.377 140.026L129.998 138.663L129.998 135.914L132.377 134.528L134.757 135.914Z" fill="white"/>
<path d="M135.034 215.175L135.034 218.247L132.377 219.795L129.697 218.247L129.697 215.175L132.377 213.627L135.034 215.175Z" fill="white"/>
<path d="M136.975 293.465L136.975 298.801L132.377 301.458L127.756 298.801L127.756 293.465L132.377 290.808L136.975 293.465Z" fill="white"/>
<path d="M136.398 373.257L136.398 377.878L132.377 380.211L128.357 377.878L128.357 373.257L132.377 370.924L136.398 373.257Z" fill="white"/>
<path d="M481.937 15.6709L481.937 21.4693L476.9 24.3569L471.886 21.4693L471.886 15.6709L476.9 12.7601L481.937 15.6709Z" fill="white"/>
<path d="M411.396 55.8904L411.396 59.8176L408 61.7812L404.604 59.8176L404.604 55.8904L408 53.9268L411.396 55.8904Z" fill="white"/>
<path d="M411.859 214.481L411.859 218.94L408 221.181L404.141 218.94L404.141 214.481L408 212.24L411.859 214.481Z" fill="white"/>
</g>
<g style="mix-blend-mode:overlay" clip-path="url(#clip5_718_14)">
<path opacity="0.5" d="M1753.49 8555.53L1816.18 8591.75L1816.18 8664.19L1815.93 8664.33L1753.49 8700.41L1690.8 8664.19L1690.8 8591.75L1691.05 8591.61L1753.49 8555.53ZM1815.2 8592.32L1753.49 8556.68L1691.78 8592.32L1691.78 8663.6L1753.49 8699.24L1815.2 8663.6L1815.2 8592.32Z" fill="#D0D9DD"/>
<path opacity="0.5" d="M1940.09 8735.2L2002.79 8771.43L2002.79 8843.86L2002.54 8844.01L1940.09 8880.09L1877.4 8843.86L1877.4 8771.43L1877.65 8771.28L1940.09 8735.2ZM2001.81 8771.99L1940.09 8736.35L1878.38 8771.99L1878.38 8843.28L1940.09 8878.92L2001.81 8843.28L2001.81 8771.99Z" fill="#D0D9DD"/>
<path opacity="0.5" d="M1940.09 8519.59L2002.79 8555.82L2002.79 8628.25L2002.54 8628.4L1940.09 8664.48L1877.4 8628.25L1877.4 8555.82L1877.65 8555.67L1940.09 8519.59ZM2001.81 8556.38L1940.09 8520.74L1878.38 8556.38L1878.38 8627.67L1940.09 8663.31L2001.81 8627.67L2001.81 8556.38Z" fill="#D0D9DD"/>
<path opacity="0.5" d="M1940.09 8232.16L1940.34 8232.3L2002.79 8268.38L2002.79 8340.82L2002.54 8340.96L1940.09 8377.04L1877.4 8340.82L1877.4 8268.38L1877.65 8268.24L1940.09 8232.16ZM2001.81 8268.95L1940.09 8233.31L1878.38 8268.95L1878.38 8340.23L1940.09 8375.88L2001.81 8340.23L2001.81 8268.95Z" fill="#D0D9DD"/>
<path opacity="0.5" d="M1877.9 8771.13L1940.59 8807.36L1940.59 8879.77L1940.34 8879.92L1877.9 8916L1815.2 8879.77L1815.2 8807.34L1815.45 8807.19L1877.9 8771.11L1877.9 8771.13ZM1939.61 8807.93L1877.9 8772.28L1816.18 8807.93L1816.18 8879.21L1877.9 8914.85L1939.61 8879.21L1939.61 8807.93Z" fill="#D0D9DD"/>
<path opacity="0.5" d="M1877.9 8627.4L1940.59 8663.62L1940.59 8736.06L1940.34 8736.2L1877.9 8772.28L1815.2 8736.06L1815.2 8663.62L1815.45 8663.48L1877.9 8627.4ZM1939.61 8664.19L1877.9 8628.54L1816.18 8664.19L1816.18 8735.47L1877.9 8771.11L1939.61 8735.47L1939.61 8664.19Z" fill="#D0D9DD"/>
<path opacity="0.5" d="M1877.9 8483.68L1940.59 8519.91L1940.59 8592.34L1940.34 8592.48L1877.9 8628.57L1815.2 8592.34L1815.2 8519.91L1815.45 8519.76L1877.9 8483.68ZM1939.61 8520.47L1877.9 8484.83L1816.18 8520.47L1816.18 8591.75L1877.9 8627.4L1939.61 8591.75L1939.61 8520.47Z" fill="#D0D9DD"/>
<path opacity="0.5" d="M1877.9 8411.81L1940.59 8448.04L1940.59 8520.47L1940.34 8520.62L1877.9 8556.7L1815.2 8520.47L1815.2 8448.04L1815.45 8447.89L1877.9 8411.81ZM1939.61 8448.6L1877.9 8412.96L1816.18 8448.6L1816.18 8519.88L1877.9 8555.53L1939.61 8519.89L1939.61 8448.6Z" fill="#D0D9DD"/>
<path opacity="0.5" d="M1753.49 8411.81L1816.18 8448.04L1816.18 8520.47L1815.93 8520.62L1753.49 8556.7L1690.8 8520.47L1690.8 8448.04L1691.05 8447.89L1753.49 8411.81ZM1815.2 8448.6L1753.49 8412.96L1691.78 8448.6L1691.78 8519.88L1753.49 8555.53L1815.2 8519.89L1815.2 8448.6Z" fill="#D0D9DD"/>
<path opacity="0.5" d="M1877.9 8196.22L1878.15 8196.37L1940.59 8232.45L1940.59 8304.88L1940.34 8305.03L1877.9 8341.11L1815.2 8304.88L1815.2 8232.45L1815.45 8232.3L1877.9 8196.22ZM1939.61 8233.01L1877.9 8197.37L1816.18 8233.01L1816.18 8304.3L1877.9 8339.94L1939.61 8304.3L1939.61 8233.01Z" fill="#D0D9DD"/>
<path opacity="0.5" d="M1815.7 8735.2L1878.4 8771.43L1878.4 8843.86L1878.15 8844.01L1815.7 8880.09L1753.01 8843.86L1753.01 8771.43L1753.26 8771.28L1815.7 8735.2ZM1877.42 8771.99L1815.7 8736.35L1753.99 8771.99L1753.99 8843.28L1815.7 8878.92L1877.42 8843.28L1877.42 8771.99Z" fill="#D0D9DD"/>
<path opacity="0.5" d="M1815.7 8375.88L1878.4 8412.1L1878.4 8484.53L1878.15 8484.68L1815.7 8520.76L1753.01 8484.53L1753.01 8412.1L1753.26 8411.96L1815.7 8375.88ZM1877.42 8412.67L1815.7 8377.02L1753.99 8412.67L1753.99 8483.95L1815.7 8519.59L1877.42 8483.95L1877.42 8412.67Z" fill="#D0D9DD"/>
<path opacity="0.5" d="M1753.49 8699.27L1816.18 8735.49L1816.18 8807.92L1815.93 8808.07L1753.49 8844.15L1690.8 8807.92L1690.8 8735.49L1691.05 8735.35L1753.49 8699.27ZM1815.2 8736.06L1753.49 8700.41L1691.78 8736.06L1691.78 8807.34L1753.49 8842.98L1815.2 8807.34L1815.2 8736.06Z" fill="#D0D9DD"/>
<path opacity="0.5" d="M1691.3 8591.46L1753.99 8627.69L1753.99 8700.12L1753.74 8700.27L1691.3 8736.35L1628.6 8700.12L1628.6 8627.69L1628.85 8627.54L1691.3 8591.46ZM1753.01 8628.25L1691.3 8592.61L1629.58 8628.25L1629.58 8699.54L1691.3 8735.18L1753.01 8699.54L1753.01 8628.25Z" fill="#D0D9DD"/>
<path opacity="0.5" d="M1504.69 8699.27L1567.39 8735.49L1567.39 8807.92L1567.14 8808.07L1504.69 8844.15L1442 8807.92L1442 8735.49L1442.25 8735.35L1504.69 8699.27ZM1566.41 8736.06L1504.69 8700.41L1442.98 8736.06L1442.98 8807.34L1504.69 8842.98L1566.41 8807.34L1566.41 8736.06Z" fill="#D0D9DD"/>
<path opacity="0.5" d="M1940.09 8016.55L1940.34 8016.7L2002.79 8052.78L2002.79 8125.21L2002.54 8125.36L1940.09 8161.44L1939.84 8161.29L1877.4 8125.21L1877.4 8052.78L1877.65 8052.63L1940.09 8016.55ZM2001.81 8053.34L1940.09 8017.7L1878.38 8053.34L1878.38 8124.63L1940.09 8160.27L2001.81 8124.63L2001.81 8053.34Z" fill="#D0D9DD"/>
<path opacity="0.5" d="M1877.9 8123.96L1878.15 8124.1L1940.59 8160.18L1940.59 8232.62L1940.34 8232.76L1877.9 8268.84L1877.65 8268.7L1815.2 8232.62L1815.2 8160.18L1815.45 8160.04L1877.9 8123.96ZM1939.61 8160.75L1877.9 8125.11L1816.18 8160.75L1816.18 8232.03L1877.9 8267.68L1939.61 8232.03L1939.61 8160.75Z" fill="#D0D9DD"/>
<path opacity="0.5" d="M1877.9 8339.94L1940.59 8376.17L1940.59 8448.6L1940.34 8448.75L1877.9 8484.83L1815.2 8448.6L1815.2 8376.17L1815.45 8376.02L1877.9 8339.94ZM1939.61 8376.73L1877.9 8341.09L1816.18 8376.73L1816.18 8448.02L1877.9 8483.66L1939.61 8448.02L1939.61 8376.73Z" fill="#D0D9DD"/>
<path d="M1691.3 8448.02L1754.24 8484.37L1754.24 8557.09L1753.86 8557.3L1691.3 8593.44L1628.35 8557.09L1628.35 8484.37L1628.73 8484.16L1691.3 8448.02ZM1752.76 8485.24L1691.3 8449.75L1629.83 8485.24L1629.83 8556.24L1691.3 8591.73L1752.76 8556.24L1752.76 8485.24Z" fill="white"/>
<path d="M1940.09 8375.58L2003.04 8411.94L2003.04 8484.66L2002.66 8484.87L1940.09 8521.01L1877.15 8484.66L1877.15 8411.94L1877.52 8411.73L1940.09 8375.58ZM2001.55 8412.81L1940.09 8377.32L1878.63 8412.81L1878.63 8483.8L1940.09 8519.3L2001.55 8483.8L2001.55 8412.81Z" fill="white"/>
<path d="M1940.09 8088.11L1940.47 8088.32L2003.04 8124.46L2003.04 8197.18L2002.66 8197.39L1940.09 8233.54L1939.72 8233.33L1877.15 8197.18L1877.15 8124.46L1877.52 8124.25L1940.09 8088.11ZM2001.56 8125.34L1940.09 8089.84L1878.63 8125.34L1878.63 8196.33L1940.09 8231.82L2001.56 8196.33L2001.56 8125.34Z" fill="white"/>
<path d="M1940.09 8591.17L2003.04 8627.52L2003.04 8700.25L2002.66 8700.46L1940.09 8736.6L1877.15 8700.25L1877.15 8627.52L1877.52 8627.31L1940.09 8591.17ZM2001.55 8628.4L1940.09 8592.9L1878.63 8628.4L1878.63 8699.39L1940.09 8734.89L2001.55 8699.39L2001.55 8628.4Z" fill="white"/>
<path d="M1877.9 8698.97L1940.84 8735.33L1940.84 8808.05L1940.47 8808.26L1877.9 8844.4L1814.95 8808.05L1814.95 8735.33L1815.33 8735.12L1877.9 8698.97ZM1939.36 8736.2L1877.9 8700.71L1816.43 8736.2L1816.43 8807.19L1877.9 8842.69L1939.36 8807.19L1939.36 8736.2Z" fill="white"/>
<path d="M1815.7 8519.32L1878.65 8555.67L1878.65 8628.4L1878.27 8628.61L1815.7 8664.75L1752.76 8628.4L1752.76 8555.67L1753.14 8555.46L1815.7 8519.32ZM1877.17 8556.55L1815.7 8521.05L1754.24 8556.55L1754.24 8627.54L1815.7 8663.04L1877.17 8627.54L1877.17 8556.55Z" fill="white"/>
<path d="M1815.7 8303.74L1816.08 8303.94L1878.65 8340.09L1878.65 8412.81L1878.27 8413.02L1815.7 8449.16L1752.76 8412.81L1752.76 8340.09L1753.14 8339.88L1815.7 8303.74ZM1877.17 8340.96L1815.7 8305.47L1754.24 8340.96L1754.24 8411.96L1815.7 8447.45L1877.17 8411.96L1877.17 8340.96Z" fill="white"/>
<path d="M1815.7 8160L1816.08 8160.21L1878.65 8196.35L1878.65 8269.07L1878.27 8269.28L1815.7 8305.43L1815.33 8305.22L1752.76 8269.07L1752.76 8196.35L1753.14 8196.14L1815.7 8160ZM1877.17 8197.23L1815.7 8161.73L1754.24 8197.23L1754.24 8268.22L1815.7 8303.71L1877.17 8268.22L1877.17 8197.23Z" fill="white"/>
<path d="M1753.49 8627.1L1816.43 8663.46L1816.43 8736.18L1816.06 8736.39L1753.49 8772.53L1690.55 8736.18L1690.55 8663.46L1690.92 8663.25L1753.49 8627.1ZM1814.95 8664.33L1753.49 8628.84L1692.03 8664.33L1692.03 8735.33L1753.49 8770.82L1814.95 8735.33L1814.95 8664.33Z" fill="white"/>
<path d="M1629.1 8698.97L1692.05 8735.33L1692.05 8808.05L1691.67 8808.26L1629.1 8844.4L1566.16 8808.05L1566.16 8735.33L1566.53 8735.12L1629.1 8698.97ZM1690.57 8736.2L1629.1 8700.71L1567.64 8736.2L1567.64 8807.19L1629.1 8842.69L1690.57 8807.19L1690.57 8736.2Z" fill="white"/>
<path d="M1566.89 8734.91L1629.83 8771.26L1629.83 8843.98L1629.46 8844.19L1566.89 8880.34L1503.94 8843.98L1503.94 8771.26L1504.32 8771.05L1566.89 8734.91ZM1628.35 8772.14L1566.89 8736.64L1505.42 8772.14L1505.42 8843.13L1566.89 8878.63L1628.35 8843.13L1628.35 8772.14Z" fill="white"/>
<path opacity="0.5" d="M1873.43 8846.13L1873.43 8840.98L1877.9 8838.41L1882.36 8840.98L1882.36 8846.13L1877.9 8848.72L1873.43 8846.13Z" fill="#D0D9DD"/>
<path opacity="0.5" d="M1876.06 8772.83L1876.06 8770.72L1877.9 8769.65L1879.73 8770.72L1879.73 8772.83L1877.9 8773.89L1876.06 8772.83Z" fill="#D0D9DD"/>
<path opacity="0.5" d="M1873.25 8630.86L1873.25 8625.48L1877.9 8622.81L1882.55 8625.48L1882.55 8630.86L1877.9 8633.55L1873.25 8630.86Z" fill="#D0D9DD"/>
<path opacity="0.5" d="M1873.1 8559.14L1873.1 8553.61L1877.9 8550.85L1882.69 8553.61L1882.69 8559.14L1877.9 8561.91L1873.1 8559.14Z" fill="#D0D9DD"/>
<path opacity="0.5" d="M1812.53 8881.32L1812.53 8877.67L1815.7 8875.85L1818.85 8877.67L1818.85 8881.32L1815.7 8883.13L1812.53 8881.32Z" fill="#D0D9DD"/>
<path opacity="0.5" d="M1749.65 8845.78L1749.65 8841.33L1753.49 8839.12L1757.35 8841.33L1757.35 8845.78L1753.49 8848.01L1749.65 8845.78Z" fill="#D0D9DD"/>
<path opacity="0.5" d="M1749.76 8486.75L1749.76 8482.43L1753.49 8480.26L1757.24 8482.43L1757.24 8486.75L1753.49 8488.92L1749.76 8486.75Z" fill="#D0D9DD"/>
<path opacity="0.5" d="M1750.15 8414.71L1750.15 8410.85L1753.49 8408.93L1756.85 8410.85L1756.85 8414.71L1753.49 8416.65L1750.15 8414.71Z" fill="#D0D9DD"/>
<path opacity="0.5" d="M1747.15 8272.85L1747.15 8265.53L1753.49 8261.87L1759.85 8265.53L1759.85 8272.85L1753.49 8276.52L1747.15 8272.85Z" fill="#D0D9DD"/>
<path opacity="0.5" d="M1813.95 8808.76L1813.95 8806.74L1815.7 8805.71L1817.46 8806.74L1817.46 8808.76L1815.7 8809.76L1813.95 8808.76Z" fill="#D0D9DD"/>
<path opacity="0.5" d="M1812.41 8522.64L1812.41 8518.84L1815.7 8516.94L1819 8518.84L1819 8522.64L1815.7 8524.56L1812.41 8522.64Z" fill="#D0D9DD"/>
<path opacity="0.5" d="M1814.14 8378.15L1814.14 8376.33L1815.7 8375.44L1817.27 8376.33L1817.27 8378.15L1815.7 8379.07L1814.14 8378.15Z" fill="#D0D9DD"/>
<path opacity="0.5" d="M1811.18 8236.35L1811.18 8231.14L1815.7 8228.53L1820.21 8231.14L1820.21 8236.35L1815.7 8238.96L1811.18 8236.35Z" fill="#D0D9DD"/>
<path opacity="0.5" d="M1626.52 8773.26L1626.52 8770.28L1629.1 8768.78L1631.69 8770.28L1631.69 8773.26L1629.1 8774.77L1626.52 8773.26Z" fill="#D0D9DD"/>
<path opacity="0.5" d="M1624.85 8702.44L1624.85 8697.51L1629.1 8695.05L1633.36 8697.51L1633.36 8702.44L1629.1 8704.9L1624.85 8702.44Z" fill="#D0D9DD"/>
<path opacity="0.5" d="M1624.47 8630.84L1624.47 8625.5L1629.1 8622.85L1633.71 8625.5L1633.71 8630.84L1629.1 8633.51L1624.47 8630.84Z" fill="#D0D9DD"/>
<path opacity="0.5" d="M1685.89 8810.87L1685.89 8804.63L1691.3 8801.5L1696.7 8804.63L1696.7 8810.87L1691.3 8813.98L1685.89 8810.87Z" fill="#D0D9DD"/>
<path opacity="0.5" d="M1686.87 8738.56L1686.87 8733.43L1691.3 8730.88L1695.72 8733.43L1695.72 8738.56L1691.3 8741.11L1686.87 8738.56Z" fill="#D0D9DD"/>
<path opacity="0.5" d="M1688.02 8450.9L1688.02 8447.1L1691.3 8445.22L1694.57 8447.1L1694.57 8450.9L1691.3 8452.77L1688.02 8450.9Z" fill="#D0D9DD"/>
<path opacity="0.5" d="M1563.74 8881.32L1563.74 8877.67L1566.89 8875.85L1570.04 8877.67L1570.04 8881.32L1566.89 8883.13L1563.74 8881.32Z" fill="#D0D9DD"/>
<path opacity="0.5" d="M1499.02 8703.25L1499.02 8696.7L1504.69 8693.4L1510.37 8696.7L1510.37 8703.25L1504.69 8706.53L1499.02 8703.25Z" fill="#D0D9DD"/>
<path opacity="0.5" d="M1560.55 8739.67L1560.55 8732.32L1566.89 8728.65L1573.25 8732.32L1573.25 8739.67L1566.89 8743.34L1560.55 8739.67Z" fill="#D0D9DD"/>
<path d="M1875.67 8270.49L1875.67 8267.9L1877.9 8266.59L1880.15 8267.9L1880.15 8270.49L1877.9 8271.79L1875.67 8270.49Z" fill="white"/>
<path d="M1873.43 8487.16L1873.43 8482.01L1877.9 8479.42L1882.36 8482.01L1882.36 8487.16L1877.9 8489.75L1873.43 8487.16Z" fill="white"/>
<path d="M1811.24 8451.23L1811.24 8446.08L1815.7 8443.49L1820.17 8446.08L1820.17 8451.23L1815.7 8453.82L1811.24 8451.23Z" fill="white"/>
<path d="M1871.12 8344.91L1871.12 8337.06L1877.9 8333.14L1884.7 8337.06L1884.7 8344.91L1877.9 8348.83L1871.12 8344.91Z" fill="white"/>
<path d="M1874.31 8199.48L1874.31 8195.33L1877.9 8193.24L1881.48 8195.33L1881.48 8199.48L1877.9 8201.54L1874.31 8199.48Z" fill="white"/>
<path d="M1750.88 8557.89L1750.88 8554.86L1753.49 8553.36L1756.12 8554.86L1756.12 8557.89L1753.49 8559.41L1750.88 8557.89Z" fill="white"/>
<path d="M1750.88 8773.28L1750.88 8770.26L1753.49 8768.76L1756.12 8770.26L1756.12 8773.28L1753.49 8774.79L1750.88 8773.28Z" fill="white"/>
<path d="M1750.07 8701.96L1750.07 8697.99L1753.49 8696.01L1756.93 8697.99L1756.93 8701.96L1753.49 8703.92L1750.07 8701.96Z" fill="white"/>
<path d="M1748.96 8343.61L1748.96 8338.38L1753.49 8335.75L1758.04 8338.38L1758.04 8343.61L1753.49 8346.22L1748.96 8343.61Z" fill="white"/>
<path d="M1809.41 8739.62L1809.41 8732.36L1815.7 8728.71L1822 8732.36L1822 8739.62L1815.7 8743.28L1809.41 8739.62Z" fill="white"/>
<path d="M1811.01 8666.94L1811.01 8661.54L1815.7 8658.82L1820.38 8661.54L1820.38 8666.94L1815.7 8669.65L1811.01 8666.94Z" fill="white"/>
<path d="M1810.62 8595.43L1810.62 8589.56L1815.7 8586.62L1820.77 8589.56L1820.77 8595.43L1815.7 8598.37L1810.62 8595.43Z" fill="white"/>
<path d="M1812.62 8307.28L1812.62 8303.71L1815.7 8301.94L1818.77 8303.71L1818.77 8307.28L1815.7 8309.06L1812.62 8307.28Z" fill="white"/>
<path d="M1812.2 8164.02L1812.2 8159.98L1815.7 8157.97L1819.19 8159.98L1819.19 8164.02L1815.7 8166.03L1812.2 8164.02Z" fill="white"/>
<path d="M1624.64 8846.13L1624.64 8840.98L1629.1 8838.41L1633.57 8840.98L1633.57 8846.13L1629.1 8848.72L1624.64 8846.13Z" fill="white"/>
<path d="M1626.87 8557.66L1626.87 8555.09L1629.1 8553.82L1631.31 8555.09L1631.31 8557.66L1629.1 8558.93L1626.87 8557.66Z" fill="white"/>
<path d="M1686.1 8667.25L1686.1 8661.24L1691.3 8658.24L1696.49 8661.24L1696.49 8667.25L1691.3 8670.24L1686.1 8667.25Z" fill="white"/>
<path d="M1688.88 8593.9L1688.88 8591.09L1691.3 8589.69L1693.72 8591.09L1693.72 8593.9L1691.3 8595.3L1688.88 8593.9Z" fill="white"/>
<path d="M1501.36 8773.7L1501.36 8769.84L1504.69 8767.92L1508.03 8769.84L1508.03 8773.7L1504.69 8775.62L1501.36 8773.7Z" fill="white"/>
</g>
</g>
<defs>
<filter id="filter0_f_718_14" x="-1295" y="8788" width="2477" height="2477" filterUnits="userSpaceOnUse" color-interpolation-filters="sRGB">
<feFlood flood-opacity="0" result="BackgroundImageFix"/>
<feBlend mode="normal" in="SourceGraphic" in2="BackgroundImageFix" result="shape"/>
<feGaussianBlur stdDeviation="272" result="effect1_foregroundBlur_718_14"/>
</filter>
<filter id="filter1_f_718_14" x="1162" y="3825" width="1743" height="1743" filterUnits="userSpaceOnUse" color-interpolation-filters="sRGB">
<feFlood flood-opacity="0" result="BackgroundImageFix"/>
<feBlend mode="normal" in="SourceGraphic" in2="BackgroundImageFix" result="shape"/>
<feGaussianBlur stdDeviation="202" result="effect1_foregroundBlur_718_14"/>
</filter>
<filter id="filter2_f_718_14" x="-1155" y="4824" width="2297" height="2297" filterUnits="userSpaceOnUse" color-interpolation-filters="sRGB">
<feFlood flood-opacity="0" result="BackgroundImageFix"/>
<feBlend mode="normal" in="SourceGraphic" in2="BackgroundImageFix" result="shape"/>
<feGaussianBlur stdDeviation="272" result="effect1_foregroundBlur_718_14"/>
</filter>
<filter id="filter3_f_718_14" x="-731" y="4966" width="1645" height="1645" filterUnits="userSpaceOnUse" color-interpolation-filters="sRGB">
<feFlood flood-opacity="0" result="BackgroundImageFix"/>
<feBlend mode="normal" in="SourceGraphic" in2="BackgroundImageFix" result="shape"/>
<feGaussianBlur stdDeviation="177" result="effect1_foregroundBlur_718_14"/>
</filter>
<filter id="filter4_f_718_14" x="-1401" y="1227" width="2175" height="2175" filterUnits="userSpaceOnUse" color-interpolation-filters="sRGB">
<feFlood flood-opacity="0" result="BackgroundImageFix"/>
<feBlend mode="normal" in="SourceGraphic" in2="BackgroundImageFix" result="shape"/>
<feGaussianBlur stdDeviation="272" result="effect1_foregroundBlur_718_14"/>
</filter>
<filter id="filter5_f_718_14" x="-704" y="-767" width="1743" height="1743" filterUnits="userSpaceOnUse" color-interpolation-filters="sRGB">
<feFlood flood-opacity="0" result="BackgroundImageFix"/>
<feBlend mode="normal" in="SourceGraphic" in2="BackgroundImageFix" result="shape"/>
<feGaussianBlur stdDeviation="202" result="effect1_foregroundBlur_718_14"/>
</filter>
<filter id="filter6_f_718_14" x="774" y="-71" width="2175" height="2175" filterUnits="userSpaceOnUse" color-interpolation-filters="sRGB">
<feFlood flood-opacity="0" result="BackgroundImageFix"/>
<feBlend mode="normal" in="SourceGraphic" in2="BackgroundImageFix" result="shape"/>
<feGaussianBlur stdDeviation="272" result="effect1_foregroundBlur_718_14"/>
</filter>
<filter id="filter7_f_718_14" x="-197" y="-815" width="1623" height="1623" filterUnits="userSpaceOnUse" color-interpolation-filters="sRGB">
<feFlood flood-opacity="0" result="BackgroundImageFix"/>
<feBlend mode="normal" in="SourceGraphic" in2="BackgroundImageFix" result="shape"/>
<feGaussianBlur stdDeviation="202" result="effect1_foregroundBlur_718_14"/>
</filter>
<filter id="filter8_f_718_14" x="998" y="647" width="1939" height="1939" filterUnits="userSpaceOnUse" color-interpolation-filters="sRGB">
<feFlood flood-opacity="0" result="BackgroundImageFix"/>
<feBlend mode="normal" in="SourceGraphic" in2="BackgroundImageFix" result="shape"/>
<feGaussianBlur stdDeviation="177" result="effect1_foregroundBlur_718_14"/>
</filter>
<filter id="filter9_f_718_14" x="942" y="7467" width="1951" height="1951" filterUnits="userSpaceOnUse" color-interpolation-filters="sRGB">
<feFlood flood-opacity="0" result="BackgroundImageFix"/>
<feBlend mode="normal" in="SourceGraphic" in2="BackgroundImageFix" result="shape"/>
<feGaussianBlur stdDeviation="202" result="effect1_foregroundBlur_718_14"/>
</filter>
<filter id="filter10_f_718_14" x="874" y="8102" width="1939" height="1939" filterUnits="userSpaceOnUse" color-interpolation-filters="sRGB">
<feFlood flood-opacity="0" result="BackgroundImageFix"/>
<feBlend mode="normal" in="SourceGraphic" in2="BackgroundImageFix" result="shape"/>
<feGaussianBlur stdDeviation="177" result="effect1_foregroundBlur_718_14"/>
</filter>
<clipPath id="clip0_718_14">
<rect width="1920" height="9949" fill="white"/>
</clipPath>
<clipPath id="clip1_718_14">
<rect width="623" height="905" fill="white" transform="matrix(1 -8.74228e-08 -8.74228e-08 -1 -57 10293)"/>
</clipPath>
<clipPath id="clip2_718_14">
<rect width="1035" height="1235" fill="white" transform="translate(660 7048) rotate(-180)"/>
</clipPath>
<clipPath id="clip3_718_14">
<rect width="623" height="905" fill="white" transform="translate(2076 1816) rotate(-180)"/>
</clipPath>
<clipPath id="clip4_718_14">
<rect width="1035" height="1235" fill="white" transform="translate(822 617) rotate(-180)"/>
</clipPath>
<clipPath id="clip5_718_14">
<rect width="623" height="905" fill="white" transform="translate(2065 8916) rotate(-180)"/>
</clipPath>
</defs>
</svg>
