<svg width="72" height="83" viewBox="0 0 72 83" fill="none" xmlns="http://www.w3.org/2000/svg">
<path d="M48.1924 35.4632C47.8207 35.4632 47.4545 35.2693 47.2552 34.9245C46.9589 34.4074 47.1367 33.7503 47.6538 33.454L58.6852 27.125C59.2023 26.8287 59.8594 27.0065 60.1557 27.5236C60.4519 28.0407 60.2742 28.6978 59.7571 28.9941L48.7257 35.3231C48.5587 35.4201 48.3702 35.4686 48.1924 35.4686V35.4632Z" fill="white"/>
<path d="M35.5881 82.4437C35.2165 82.4437 34.8502 82.2498 34.6509 81.8997C34.3547 81.3826 34.5324 80.7255 35.0495 80.4292L68.9948 60.9788V21.8248C68.9948 21.2323 69.4742 20.7476 70.0721 20.7476C70.67 20.7476 71.1494 21.2323 71.1494 21.8248V61.4744C71.1548 61.5121 71.1601 61.5552 71.1601 61.5983C71.1601 61.9861 70.9608 62.3416 70.6269 62.5355L36.1268 82.3037C35.9598 82.4007 35.7713 82.4491 35.5935 82.4491L35.5881 82.4437Z" fill="white"/>
<path d="M35.5935 68.9396C35.001 68.9396 34.5163 68.4548 34.5163 67.8623L34.5324 56.5077C34.5324 55.9152 35.0172 55.4304 35.6097 55.4304C36.2022 55.4304 36.687 55.9152 36.687 56.5077L36.6708 67.8623C36.6708 68.4548 36.186 68.9396 35.5935 68.9396Z" fill="white"/>
<path d="M22.9731 35.3768C22.79 35.3768 22.6015 35.3283 22.4345 35.2314L11.3977 28.8377C10.8806 28.5414 10.7082 27.8789 11.0045 27.3672C11.3007 26.8501 11.9633 26.6777 12.475 26.974L23.5118 33.3677C24.0289 33.6639 24.2012 34.3265 23.905 34.8382C23.7057 35.1829 23.3448 35.3768 22.9731 35.3768Z" fill="white"/>
<path d="M35.5828 82.4434C35.3996 82.4434 35.2165 82.3949 35.0441 82.2979L0.538643 62.3035C0.204684 62.1096 0 61.7541 0 61.3717V21.609C0 21.0165 0.479392 20.5317 1.07729 20.5317C1.67518 20.5317 2.15457 21.0165 2.15457 21.609V60.7522L36.1214 80.4342C36.6385 80.7305 36.8109 81.393 36.5146 81.9047C36.3153 82.2495 35.9544 82.4434 35.5828 82.4434Z" fill="white"/>
<path d="M70.083 22.9128C69.8999 22.9128 69.7114 22.8643 69.5444 22.7674L35.5776 3.08535L1.61611 22.5465C1.09901 22.8428 0.441868 22.665 0.145614 22.1479C-0.15064 21.6308 0.0271114 20.9737 0.544209 20.6774L35.0443 0.903845C35.3783 0.71532 35.7876 0.71532 36.1216 0.903845L70.6271 20.8983C71.1442 21.1945 71.3165 21.8571 71.0203 22.3688C70.821 22.7135 70.4601 22.9074 70.0884 22.9074L70.083 22.9128Z" fill="white"/>
<path d="M22.9731 35.3768C22.79 35.3768 22.6015 35.3283 22.4345 35.2314L11.3977 28.8377C10.8806 28.5414 10.7082 27.8789 11.0045 27.3672C11.3007 26.8501 11.9633 26.6777 12.475 26.974L23.5118 33.3677C24.0289 33.6639 24.2012 34.3265 23.905 34.8382C23.7057 35.1829 23.3448 35.3768 22.9731 35.3768Z" fill="white"/>
<path d="M48.1978 35.4739C47.8261 35.4739 47.4598 35.28 47.2605 34.9353C46.9643 34.4182 47.142 33.761 47.6591 33.4648L58.6906 27.1357C59.2076 26.8395 59.8648 27.0172 60.161 27.5343C60.4573 28.0514 60.2795 28.7085 59.7624 29.0048L48.731 35.3339C48.5641 35.4308 48.3755 35.4793 48.1978 35.4793V35.4739Z" fill="white"/>
<path d="M35.5828 57.2136C35.2111 57.2136 34.8448 57.0197 34.6455 56.6696C34.3493 56.1525 34.527 55.4953 35.0441 55.1991L47.1043 48.2883V34.3751C47.1043 33.7826 47.5837 33.2979 48.1816 33.2979C48.7795 33.2979 49.2589 33.7826 49.2589 34.3751V48.8377C49.2589 48.8646 49.2589 48.897 49.2589 48.9239C49.2535 49.3063 49.0488 49.6564 48.7203 49.845L36.1106 57.0682C35.9436 57.1651 35.7551 57.2136 35.5774 57.2136H35.5828Z" fill="white"/>
<path d="M35.5828 57.2136C35.3996 57.2136 35.2111 57.1651 35.0441 57.0681L22.4345 49.7641C22.1005 49.5702 21.8958 49.2147 21.8958 48.8323V34.2997C21.8958 33.7072 22.3752 33.2224 22.9731 33.2224C23.571 33.2224 24.0504 33.7072 24.0504 34.2997V48.2128L36.1214 55.2098C36.6385 55.5061 36.8109 56.1686 36.5146 56.6803C36.3153 57.0251 35.9544 57.219 35.5828 57.219V57.2136Z" fill="white"/>
<path d="M48.1926 35.4577C48.0094 35.4577 47.8209 35.4092 47.6539 35.3123L35.5829 28.3153L23.512 35.2315C22.9949 35.5277 22.3377 35.35 22.0415 34.8329C21.7452 34.3158 21.923 33.6587 22.4401 33.3624L35.0497 26.1392C35.3837 25.9507 35.793 25.9507 36.127 26.1392L48.7366 33.4432C49.2537 33.7394 49.4261 34.402 49.1298 34.9137C48.9305 35.2584 48.5696 35.4523 48.198 35.4523L48.1926 35.4577Z" fill="white"/>
<path d="M35.5827 69.9362C35.3942 69.9362 35.2111 69.8878 35.0441 69.7908C34.7101 69.5969 34.5055 69.2414 34.5055 68.8589V56.5132C34.5108 55.9207 34.9956 55.436 35.5881 55.436C36.1806 55.436 36.6654 55.9207 36.6654 56.5132V67.0006L58.1411 54.6926V29.9151L48.7203 35.3176C48.2032 35.6139 47.546 35.4361 47.2498 34.919C46.9535 34.4019 47.1313 33.7448 47.6484 33.4486L58.6798 27.1195C59.0137 26.9256 59.4231 26.931 59.7571 27.1195C60.091 27.3134 60.2957 27.6689 60.2957 28.0513V55.2097C60.2957 55.2421 60.3011 55.2744 60.3011 55.3067C60.3011 55.6945 60.0964 56.05 59.7624 56.2439L36.116 69.7908C35.949 69.8878 35.7659 69.9308 35.5827 69.9308V69.9362Z" fill="white"/>
<path d="M35.5828 69.9365C35.3942 69.9365 35.2111 69.888 35.0441 69.791L11.3977 56.088C11.0637 55.894 10.859 55.5385 10.859 55.1561V27.9061C10.859 27.5237 11.0637 27.1628 11.3977 26.9743C11.7316 26.7804 12.141 26.7804 12.475 26.9743L23.5118 33.368C24.0289 33.6642 24.2012 34.3268 23.905 34.8385C23.6087 35.3556 22.9462 35.5279 22.4345 35.2317L13.0136 29.7752V54.5367L34.5055 66.9901V56.1364C34.5055 55.5439 34.9849 55.0591 35.5828 55.0591C36.1806 55.0591 36.66 55.5439 36.66 56.1364V68.8592C36.66 69.2416 36.4554 69.6025 36.1214 69.791C35.9544 69.888 35.7713 69.9365 35.5828 69.9365Z" fill="white"/>
<path d="M48.1924 35.4686C47.8207 35.4686 47.4544 35.2746 47.2551 34.9299C46.9589 34.4128 47.1367 33.7557 47.6537 33.4594L57.0692 28.0568L35.5774 15.6034L14.0909 27.9168L23.5118 33.3732C24.0289 33.6695 24.2012 34.332 23.905 34.8437C23.6087 35.3608 22.9462 35.5332 22.4345 35.2369L11.3977 28.8432C11.0637 28.6493 10.859 28.2938 10.859 27.906C10.859 27.5236 11.0691 27.1627 11.4031 26.9742L35.0495 13.4273C35.3835 13.2388 35.7928 13.2388 36.1268 13.4273L59.7732 27.1304C60.1072 27.3243 60.3119 27.6798 60.3119 28.0622C60.3119 28.45 60.1072 28.8055 59.7732 28.9941L48.7364 35.3285C48.5694 35.4255 48.3809 35.4739 48.2032 35.4739L48.1924 35.4686Z" fill="white"/>
<path d="M35.5828 15.4309C34.9903 15.4309 34.5055 14.9461 34.5055 14.3536V1.84096C34.5055 1.24845 34.9849 0.763672 35.5828 0.763672C36.1807 0.763672 36.6601 1.24845 36.6601 1.84096V14.3536C36.6601 14.9461 36.1753 15.4309 35.5828 15.4309Z" fill="white"/>
<path d="M35.5828 42.6972C34.9903 42.6972 34.5055 42.2124 34.5055 41.6199V27.0712C34.5055 26.4787 34.9903 25.9939 35.5828 25.9939C36.1753 25.9939 36.6601 26.4787 36.6601 27.0712V41.6199C36.6601 42.2124 36.1753 42.6972 35.5828 42.6972Z" fill="white"/>
<path d="M48.1924 49.9905C48.0093 49.9905 47.8261 49.942 47.6538 49.845L35.0711 42.5518C34.554 42.2556 34.3816 41.593 34.6778 41.0813C34.9741 40.5642 35.6366 40.3918 36.1483 40.6881L48.731 47.9813C49.2481 48.2776 49.4205 48.9401 49.1243 49.4518C48.925 49.7966 48.5641 49.9905 48.1924 49.9905Z" fill="white"/>
<path d="M22.9785 49.9094C22.6068 49.9094 22.2406 49.7155 22.0413 49.3654C21.745 48.8483 21.9282 48.1911 22.4453 47.8949L35.0818 40.6878C35.5989 40.3916 36.2561 40.5747 36.5523 41.0918C36.8486 41.6089 36.6654 42.2661 36.1483 42.5623L23.5118 49.7694C23.3448 49.8663 23.1617 49.9094 22.9785 49.9094Z" fill="white"/>
<path d="M70.0829 62.6754C69.8997 62.6754 69.7112 62.6269 69.5442 62.5299L58.6798 56.2332C58.1627 55.937 57.9903 55.2744 58.2866 54.7627C58.5828 54.2456 59.2454 54.0732 59.7571 54.3695L70.6215 60.6662C71.1386 60.9625 71.311 61.625 71.0147 62.1367C70.8154 62.4815 70.4545 62.6754 70.0829 62.6754Z" fill="white"/>
<path d="M1.08267 62.3952C0.711005 62.3952 0.344729 62.2013 0.145431 61.8512C-0.150823 61.3341 0.0269283 60.677 0.544026 60.3807L11.3977 54.1594C11.9148 53.8631 12.5719 54.0409 12.8682 54.558C13.1644 55.0751 12.9867 55.7322 12.4696 56.0285L1.61592 62.2498C1.44894 62.3468 1.26042 62.3952 1.08267 62.3952Z" fill="white"/>
</svg>
