<svg width="73" height="85" viewBox="0 0 73 85" fill="none" xmlns="http://www.w3.org/2000/svg">
<path d="M36.1268 84.1872C35.9437 84.1872 35.7605 84.1388 35.5989 84.0472L0.538643 63.7242C0.204684 63.5303 0 63.1748 0 62.7923C0 62.4099 0.204684 62.0544 0.538643 61.8605L35.4966 41.6291C35.5289 41.6075 35.5612 41.586 35.5989 41.5644C35.9329 41.3705 36.3423 41.3651 36.6762 41.559L71.7365 61.8443C72.0704 62.0382 72.2751 62.3938 72.2751 62.7762C72.2751 63.1586 72.0704 63.5141 71.7365 63.708L36.7786 83.9664C36.7462 83.9933 36.7085 84.0149 36.6762 84.0364C36.5038 84.1334 36.3153 84.1819 36.1268 84.1819V84.1872ZM3.23186 62.7977L36.1268 81.8603L69.0487 62.7816L36.1537 43.7459L3.23186 62.7977Z" fill="white"/>
<path d="M1.07729 63.8696C0.888761 63.8696 0.705622 63.8212 0.538643 63.7242C0.204684 63.5303 0 63.1748 0 62.7924V22.1571C0 21.7747 0.204684 21.4192 0.538643 21.2253L35.5989 0.907641C35.9329 0.713729 36.3423 0.713729 36.6762 0.907641C37.0102 1.10155 37.2149 1.45706 37.2149 1.8395V42.5071C37.2149 42.8895 37.0102 43.245 36.6762 43.4389L1.61593 63.7242C1.44895 63.8212 1.26042 63.8696 1.07729 63.8696ZM2.15457 22.7766V60.9233L35.0603 41.8822V3.7032L2.15457 22.7712V22.7766Z" fill="white"/>
<path d="M71.1924 63.8696C71.0039 63.8696 70.8208 63.8212 70.6538 63.7242L35.5935 43.4389C35.2596 43.245 35.0549 42.8895 35.0549 42.5071V1.8395C35.0549 1.45706 35.2596 1.09617 35.5935 0.907641C35.9275 0.713729 36.3368 0.713729 36.6708 0.907641L71.7311 21.2253C72.065 21.4192 72.2697 21.7747 72.2697 22.1571V62.7924C72.2697 63.1748 72.065 63.5357 71.7311 63.7242C71.5641 63.8212 71.381 63.8696 71.1924 63.8696ZM37.2094 41.8822L70.1152 60.9233V22.7766L37.2094 3.70859V41.8876V41.8822Z" fill="white"/>
<path d="M25.0954 49.9783C24.5028 49.9783 24.0181 49.4935 24.0181 48.901V8.35732C24.0181 7.76481 24.5028 7.28003 25.0954 7.28003C25.6879 7.28003 26.1726 7.76481 26.1726 8.35732V48.901C26.1726 49.4935 25.6879 49.9783 25.0954 49.9783Z" fill="white"/>
<path d="M12.9328 56.5173C12.3403 56.5173 11.8555 56.0325 11.8555 55.44V15.8659C11.8555 15.2734 12.3403 14.7886 12.9328 14.7886C13.5253 14.7886 14.0101 15.2734 14.0101 15.8659V55.44C14.0101 56.0325 13.5253 56.5173 12.9328 56.5173Z" fill="white"/>
<path d="M71.1332 37.5086C70.9501 37.5086 70.7615 37.4601 70.5892 37.3577L35.6474 16.7924C35.1357 16.4907 34.9633 15.8282 35.265 15.3165C35.5666 14.8047 36.2291 14.6324 36.7408 14.934L71.6826 35.4994C72.1943 35.8011 72.3667 36.4636 72.0651 36.9753C71.8658 37.3147 71.5049 37.5086 71.1332 37.5086Z" fill="white"/>
<path d="M71.1925 51.4163C71.0093 51.4163 70.8208 51.3678 70.6484 51.2709L35.6474 30.7809C35.1357 30.4792 34.9633 29.8221 35.2596 29.305C35.5612 28.7933 36.2184 28.6209 36.7355 28.9226L71.7365 49.4125C72.2482 49.7142 72.4206 50.3713 72.1243 50.8884C71.925 51.2332 71.5641 51.4217 71.1925 51.4217V51.4163Z" fill="white"/>
<path d="M11.8286 70.102C11.4569 70.102 11.096 69.908 10.8967 69.5633C10.6005 69.0462 10.7728 68.3891 11.2899 68.0928L46.0917 47.9691C46.6034 47.6729 47.2659 47.8452 47.5622 48.3623C47.8584 48.8794 47.686 49.5366 47.1689 49.8328L12.3672 69.9565C12.2002 70.0535 12.0117 70.102 11.8286 70.102Z" fill="white"/>
<path d="M23.7542 77.0128C23.3825 77.0128 23.0162 76.8188 22.8169 76.4741C22.5207 75.957 22.6984 75.2999 23.2155 75.0036L58.2112 54.8584C58.7283 54.5621 59.3854 54.7399 59.6817 55.257C59.9779 55.7741 59.8002 56.4312 59.2831 56.7275L24.2874 76.8727C24.1204 76.9697 23.9319 77.0182 23.7488 77.0182L23.7542 77.0128Z" fill="white"/>
</svg>
