<svg width="92" height="92" viewBox="0 0 92 92" fill="none" xmlns="http://www.w3.org/2000/svg">
<g filter="url(#filter0_d_718_1051)">
<path d="M76.7038 84C73.6853 84 70.8464 82.8125 68.7119 80.662C66.5773 78.5115 65.3986 75.6514 65.3986 72.6103C65.3986 69.5692 66.5701 66.7091 68.7047 64.5658C70.8392 62.4153 73.6781 61.2278 76.7038 61.2278C79.7296 61.2278 82.5612 62.4081 84.6958 64.5586C89.1014 68.9972 89.1014 76.2234 84.6958 80.6693C82.5612 82.8198 79.7295 84 76.711 84H76.7038Z" fill="white"/>
<path d="M15.3052 23.2935C12.2866 23.2935 9.44776 22.106 7.30603 19.9555C5.17867 17.805 4 14.9449 4 11.9038C4 8.86269 5.17148 6.00259 7.30603 3.85932C9.44057 1.70158 12.2866 0.521334 15.3052 0.521334C18.3237 0.521334 21.1626 1.70158 23.2899 3.85208C25.4245 6.00259 26.6032 8.86269 26.6032 11.9038C26.6032 14.9449 25.4245 17.805 23.2899 19.9555C21.1554 22.106 18.3237 23.2863 15.3052 23.2863V23.2935Z" fill="white"/>
<path d="M76.1935 22.9532C73.175 22.9532 70.3361 21.7657 68.2016 19.6152C63.7959 15.1766 63.7959 7.95035 68.2016 3.51901C70.3361 1.3685 73.175 0.181019 76.2007 0.181019C79.2264 0.181019 82.0581 1.3685 84.1927 3.51901C88.5983 7.95759 88.5983 15.1839 84.1927 19.6297C82.0581 21.773 79.2193 22.9604 76.2079 22.9604L76.1935 22.9532Z" fill="white"/>
<path d="M15.5998 84C12.5813 84 9.74242 82.8125 7.60069 80.662C5.46615 78.5115 4.29467 75.6514 4.29467 72.6103C4.29467 69.5692 5.47334 66.7091 7.60788 64.5586C8.05347 64.1024 8.55657 63.6897 9.19621 63.2552C9.39026 63.1177 9.56993 63.009 9.74961 62.9004C10.1665 62.6615 10.5833 62.437 10.9714 62.256C11.1798 62.1619 11.4026 62.0605 11.6326 61.9736C12.0423 61.8216 12.495 61.684 13.0125 61.5609C13.1131 61.5319 13.2066 61.5102 13.3 61.4812C13.3575 61.4668 13.415 61.445 13.4725 61.4306L15.9879 61.2568C16.3042 61.2713 16.6491 61.3147 17.0157 61.3582L17.1594 61.3799C17.2457 61.3871 17.3607 61.4016 17.4756 61.4088H17.5763L17.6913 61.4378H17.7919C17.9787 61.4378 18.1584 61.445 18.3381 61.445C22.6719 61.445 26.9553 59.5842 30.0817 56.3403C33.1936 53.1109 34.9113 48.7665 34.7892 44.422V44.2917L34.7604 44.1541C34.7389 44.031 34.7317 43.9079 34.7245 43.7848C34.7173 43.64 34.7029 43.4952 34.6814 43.3504L34.6526 43.097C34.631 42.8797 34.6023 42.6625 34.5879 42.4453L34.782 39.9038C34.7964 39.8386 34.8179 39.7807 34.8323 39.7228L34.8754 39.5635C34.9904 39.0784 35.1126 38.6005 35.2994 38.1298C35.3929 37.8619 35.4791 37.6664 35.5797 37.4637C35.781 37.022 35.9894 36.6165 36.2337 36.2038C36.3416 36.0228 36.4422 35.8417 36.5644 35.668C37.0243 34.9946 37.434 34.4877 37.8652 34.0533C39.9997 31.9028 42.8386 30.7225 45.8643 30.7225C48.8901 30.7225 51.7218 31.9028 53.8635 34.0533C58.2619 38.4919 58.2619 45.7181 53.8563 50.1567C53.4107 50.6056 52.9076 51.0184 52.2608 51.46C52.0739 51.5904 51.8942 51.699 51.7146 51.8004C51.3049 52.0465 50.9024 52.2638 50.4928 52.452C50.27 52.5534 50.0544 52.6548 49.8388 52.7344C49.4075 52.8937 48.9476 53.0313 48.466 53.1471L48.1929 53.2195C48.1283 53.234 48.0708 53.2557 48.0133 53.2702L45.4762 53.4512C45.1816 53.4368 44.8654 53.4006 44.5348 53.3571L44.312 53.3282C44.2401 53.3137 44.1179 53.3064 43.9957 53.2992H43.9095L43.7801 53.263H43.6795C43.4926 53.263 43.313 53.2557 43.1261 53.2557C38.7923 53.2557 34.5089 55.1166 31.3825 58.3532C28.2634 61.5826 26.5528 65.9271 26.675 70.2788V70.4091L26.7038 70.5394C26.7253 70.6625 26.7325 70.7856 26.7397 70.9087C26.7469 71.0535 26.7613 71.1983 26.7828 71.3432C26.7828 71.43 26.8044 71.5893 26.826 71.7414C26.8475 71.9152 26.8691 72.089 26.8691 72.2627V72.3279L26.6894 74.768C26.675 74.8187 26.596 75.1011 26.5744 75.188C26.4522 75.7166 26.3157 76.18 26.1576 76.5999C26.0713 76.8316 25.9851 77.0344 25.8845 77.2444C25.6904 77.6788 25.4748 78.0915 25.2304 78.5115C25.1226 78.6853 25.0005 78.888 24.8711 79.0835C24.4542 79.699 24.0374 80.2131 23.5846 80.6692C21.4573 82.8197 18.6184 84 15.5998 84Z" fill="white"/>
<path d="M46.1231 84C43.1045 84 40.2585 82.8125 38.1239 80.662C35.9894 78.5115 34.8179 75.6514 34.8107 72.6103C34.8107 69.5692 35.9822 66.7163 38.1167 64.5658C38.5552 64.1241 39.0439 63.7186 39.7194 63.248C39.8848 63.1321 40.0644 63.0235 40.2585 62.9149C40.6753 62.6615 41.0706 62.4515 41.4875 62.2632C41.7103 62.1619 41.9259 62.0605 42.1415 61.9809C42.5583 61.8288 43.0183 61.6912 43.4998 61.5826C43.4998 61.5826 43.8951 61.4668 43.9454 61.4523L46.504 61.264C46.8058 61.2785 47.1293 61.322 47.4742 61.3654L47.6611 61.3871C47.7833 61.4016 47.8911 61.4088 47.9989 61.4088C48.042 61.4088 48.0851 61.4088 48.1211 61.4088H48.2001L48.3079 61.4306C48.4948 61.4306 48.6817 61.4378 48.8685 61.4378C53.1951 61.4378 57.4714 59.5769 60.5905 56.3403C63.7025 53.1109 65.4202 48.7665 65.298 44.422L65.2836 43.8935L65.2333 43.8355C65.2333 43.8355 65.2333 43.7993 65.2333 43.7776C65.2333 43.6545 65.219 43.5314 65.2046 43.4011L65.1615 43.039C65.1399 42.8363 65.1112 42.6408 65.104 42.4381L65.2765 39.9762C65.2908 39.9183 65.3771 39.6142 65.3986 39.52C65.5424 38.9335 65.6718 38.4991 65.8155 38.1153C65.8945 37.8836 65.9952 37.6736 66.0958 37.4564C66.2755 37.0582 66.4911 36.6527 66.7498 36.211L66.8001 36.1314C66.8864 35.9793 66.9726 35.8345 67.0732 35.6897C67.5332 35.009 67.95 34.5022 68.3813 34.0605C70.5158 31.91 73.3619 30.7225 76.3804 30.7225C79.3989 30.7225 82.2378 31.9028 84.3724 34.0533C88.778 38.4919 88.778 45.7181 84.3724 50.1639C83.9483 50.5912 83.438 51.0039 82.7697 51.4673C82.6403 51.5542 82.5181 51.6266 82.3959 51.7062L82.1947 51.8293C81.8138 52.0538 81.4041 52.271 81.0016 52.4593C80.7789 52.5606 80.5632 52.662 80.3404 52.7417C79.9452 52.8937 79.5068 53.0168 78.9605 53.1544C78.8527 53.1833 78.7593 53.2123 78.6731 53.234C78.6084 53.2485 78.5509 53.2702 78.4934 53.2847L75.9779 53.4585C75.6114 53.444 75.2161 53.3861 74.828 53.3354C74.6986 53.3209 74.598 53.3137 74.4974 53.3064C74.4615 53.3064 74.4183 53.3064 74.3824 53.3064L74.1668 53.2847C73.9799 53.2775 73.7931 53.2775 73.6062 53.2775C69.2724 53.2775 65.0034 55.1383 61.877 58.375C58.765 61.6043 57.0473 65.9488 57.1767 70.3005V70.4308L57.2054 70.5539C57.227 70.6842 57.2342 70.8146 57.2414 70.9449C57.2486 71.0825 57.2629 71.2128 57.2773 71.3359C57.2845 71.4445 57.2989 71.5821 57.3133 71.7124C57.3348 71.9079 57.3564 72.0962 57.3636 72.2917L57.1767 74.7898C57.1623 74.8477 57.0689 75.1808 57.0689 75.1808C56.9467 75.7093 56.8102 76.1727 56.6521 76.6072C56.5802 76.8099 56.4867 77.0127 56.3933 77.2154L56.3646 77.2878C56.1777 77.6933 55.9693 78.0988 55.7321 78.4898C55.6171 78.6853 55.5021 78.8735 55.3799 79.0546C54.9344 79.699 54.5175 80.2203 54.0719 80.6692C51.9517 82.8125 49.1129 83.9928 46.1015 83.9928L46.1231 84Z" fill="white"/>
<path d="M15.607 53.263C12.5885 53.263 9.74961 52.0828 7.61507 49.9322C5.48052 47.7817 4.30185 44.9216 4.30185 41.8733C4.30185 38.8322 5.47334 35.9793 7.60788 33.8288C8.04629 33.3871 8.55657 32.9744 9.21058 32.5182C9.38307 32.4024 9.57712 32.2865 9.76398 32.1707C10.1521 31.939 10.5546 31.7218 10.9786 31.5262C11.1942 31.4249 11.417 31.3235 11.647 31.2439C12.0638 31.0918 12.5238 30.9542 12.9981 30.8456L13.2856 30.766C13.3359 30.7515 13.3862 30.7298 13.4437 30.7225L16.0023 30.5343C16.3329 30.5487 16.6923 30.5994 17.0732 30.6501H17.1522C17.2816 30.6718 17.3822 30.6791 17.49 30.6863C17.526 30.6863 17.5619 30.6863 17.5978 30.6863L17.7056 30.708H17.8062C17.9931 30.7153 18.18 30.7225 18.3668 30.7225C22.6934 30.7225 26.9697 28.8689 30.0889 25.625C33.2008 22.3957 34.9185 18.0512 34.7892 13.6995V13.5764L34.7604 13.4533C34.7317 13.3157 34.7317 13.1782 34.7245 13.0334C34.7245 12.9175 34.7101 12.8017 34.6957 12.6858L34.6598 12.3382C34.631 12.1283 34.6095 11.9183 34.6023 11.7083L34.7748 9.31885L34.7892 9.26093V9.21024C34.8035 9.15231 34.897 8.84096 34.897 8.84096C35.0407 8.2255 35.1701 7.78381 35.3138 7.39281C35.3929 7.17559 35.4935 6.96561 35.5941 6.74114C35.781 6.33566 35.9966 5.9157 36.2409 5.49573L36.2769 5.43057C36.3775 5.26403 36.4709 5.10473 36.5787 4.93819C37.0243 4.28653 37.4412 3.77243 37.8652 3.33799C39.9997 1.18748 42.8386 0 45.8643 0C48.8901 0 51.7218 1.18024 53.8563 3.33075C58.2619 7.76933 58.2548 14.9956 53.8563 19.4342C53.4179 19.8759 52.9004 20.3031 52.268 20.7375C52.0955 20.8606 51.9446 20.9475 51.7936 21.0416L51.7074 21.0923C51.2905 21.3385 50.8809 21.5557 50.5 21.7367C50.27 21.8454 50.0616 21.9395 49.8388 22.0191C49.4147 22.1784 48.9619 22.3088 48.4589 22.4319C48.3511 22.4608 48.2576 22.4898 48.157 22.5115C48.0995 22.526 48.042 22.5477 47.9773 22.5622L45.4691 22.736C45.1528 22.7215 44.815 22.678 44.4557 22.6346L44.3048 22.6129C44.1898 22.5984 44.082 22.5912 43.9813 22.5839C43.9382 22.5839 43.8951 22.5839 43.8592 22.5767H43.7729L43.6651 22.555C43.4783 22.555 43.2914 22.5405 43.1045 22.5405C38.778 22.5405 34.5017 24.4013 31.3825 27.638C28.2705 30.8673 26.5528 35.219 26.675 39.5635V39.6938L26.7038 39.8169C26.7325 39.9472 26.7325 40.0776 26.7469 40.2079C26.7541 40.3382 26.7685 40.4758 26.7828 40.6062C26.79 40.7148 26.8116 40.8451 26.826 40.9827C26.8475 41.1709 26.8691 41.3592 26.8763 41.5475L26.6966 44.031C26.6822 44.0962 26.6606 44.1614 26.6391 44.2265L26.5744 44.451C26.4522 45.0085 26.3157 45.4719 26.1647 45.8774C26.0857 46.0947 25.9779 46.3119 25.8773 46.5436C25.6904 46.9491 25.482 47.3545 25.2376 47.7673C25.1226 47.9628 25.0148 48.151 24.8926 48.3248C24.4255 49.0054 24.0302 49.4978 23.5918 49.9322C21.4573 52.0828 18.6256 53.263 15.607 53.263Z" fill="white"/>
</g>
<defs>
<filter id="filter0_d_718_1051" x="0" y="0" width="92" height="92" filterUnits="userSpaceOnUse" color-interpolation-filters="sRGB">
<feFlood flood-opacity="0" result="BackgroundImageFix"/>
<feColorMatrix in="SourceAlpha" type="matrix" values="0 0 0 0 0 0 0 0 0 0 0 0 0 0 0 0 0 0 127 0" result="hardAlpha"/>
<feOffset dy="4"/>
<feGaussianBlur stdDeviation="2"/>
<feComposite in2="hardAlpha" operator="out"/>
<feColorMatrix type="matrix" values="0 0 0 0 0 0 0 0 0 0 0 0 0 0 0 0 0 0 0.25 0"/>
<feBlend mode="normal" in2="BackgroundImageFix" result="effect1_dropShadow_718_1051"/>
<feBlend mode="normal" in="SourceGraphic" in2="effect1_dropShadow_718_1051" result="shape"/>
</filter>
</defs>
</svg>
